<?xml version="1.0" encoding="utf-8"?>
<!-- Generator: Adobe Illustrator 19.0.0, SVG Export Plug-In . SVG Version: 6.00 Build 0)  -->
<svg version="1.1" id="Livello_1" xmlns="http://www.w3.org/2000/svg" xmlns:xlink="http://www.w3.org/1999/xlink" x="0px" y="0px"
	 viewBox="0 0 225.4 186.8" style="enable-background:new 0 0 225.4 186.8;" xml:space="preserve">
<style type="text/css">
	.st0{fill:#08467B;}
</style>
<g id="XMLID_27_">
	<g id="XMLID_631_">
		<path id="XMLID_651_" class="st0" d="M173.7,20.7C170.8,7.6,166.1,0,166.1,0l-46,27.4c0.3,0.8,0.6,1.5,0.9,2.3L173.7,20.7z"/>
		<path id="XMLID_650_" class="st0" d="M121.5,35l52.5,9.7c2-8.1,0.2-20.2,0.2-20.2l-52.8,8c0.1,0.5,0.1,1.1,0.1,1.6
			C121.5,34.4,121.5,34.7,121.5,35z"/>
		<path id="XMLID_649_" class="st0" d="M166.2,67.2c4.7-7.1,7-18.5,7-18.5l-52-11.3c-0.2,1-0.5,2-1,3L166.2,67.2z"/>
		<path id="XMLID_648_" class="st0" d="M151.1,85.8c6.4-4.7,13-15.2,13-15.2l-45-28c-0.6,0.9-1.2,1.7-1.9,2.5L151.1,85.8z"/>
		<path id="XMLID_647_" class="st0" d="M130.6,98.1c9.5-3.4,17.7-10,17.7-10l-32.8-41.5c-0.9,0.7-1.8,1.2-2.7,1.7L130.6,98.1z"/>
		<path id="XMLID_646_" class="st0" d="M107.1,102.6c14.5-0.7,19.2-2.9,19.2-2.9l-15.9-50.5c-1,0.3-2,0.5-3,0.6L107.1,102.6z"/>
		<path id="XMLID_645_" class="st0" d="M84.1,97.1c10.5,5.5,19,5.5,19,5.5l1.7-52.7c-1.1-0.1-2.1-0.2-3.1-0.5L84.1,97.1z"/>
		<path id="XMLID_644_" class="st0" d="M66.2,82.9c5.7,7.7,14.5,12.4,14.5,12.4l18.6-46.7c-1-0.4-1.9-1-2.7-1.6L66.2,82.9z"/>
		<path id="XMLID_643_" class="st0" d="M92.5,42.9L56.2,63.8c2.9,9.9,7.5,15.8,7.5,15.8l30.9-34.2C93.8,44.6,93.1,43.8,92.5,42.9z"
			/>
		<path id="XMLID_642_" class="st0" d="M54.3,44c-0.8,9.6,0.9,15.8,0.9,15.8l36.1-18.9c-0.4-1-0.8-2-1.1-3L54.3,44z"/>
		<path id="XMLID_640_" class="st0" d="M90,32.2l-30.2-5.5c-5.2,9.4-5,13.5-5,13.5l35.1-4.9c0-0.4-0.1-0.8-0.1-1.2
			C89.9,33.5,89.9,32.9,90,32.2z"/>
		<path id="XMLID_639_" class="st0" d="M69.6,14.1c-6.6,6.2-8.1,9.7-8.1,9.7l28.9,6c0.3-1,0.7-2,1.2-2.9L69.6,14.1z"/>
		<path id="XMLID_637_" class="st0" d="M94.6,22.9L81.8,6.1c-5.6,2.2-9.4,5.2-9.4,5.2l20.2,13.8C93.2,24.4,93.8,23.6,94.6,22.9z"/>
		<path id="XMLID_636_" class="st0" d="M93.3,2.4c-5,0.8-9.1,2.6-9.1,2.6l12.7,15.9c0.8-0.5,1.6-1,2.5-1.4L93.3,2.4z"/>
		<path id="XMLID_635_" class="st0" d="M104.8,1.8C98.8,1.4,96.3,2,96.3,2l5.6,16.7c0.9-0.2,1.9-0.4,2.9-0.4V1.8z"/>
		<path id="XMLID_634_" class="st0" d="M115.6,3.9c-3.2-1.1-7.7-1.8-7.7-1.8l-0.7,16.3c1,0.1,2,0.3,2.9,0.5L115.6,3.9z"/>
		<path id="XMLID_633_" class="st0" d="M118.7,25l16.3-9.4c-3.3-3.6-6.8-5.7-6.8-5.7l-11.8,12.5C117.2,23.2,118,24.1,118.7,25z"/>
		<path id="XMLID_632_" class="st0" d="M125.7,8.4c-2.6-1.7-7.2-3.5-7.2-3.5l-6.2,14.8c1,0.5,2,1,2.9,1.7L125.7,8.4z"/>
	</g>
	<g id="XMLID_660_">
		<g id="XMLID_477_">
			<path id="XMLID_537_" class="st0" d="M24.7,125.8c1.7,0.8,2.9,2.1,3.8,3.6c0.9,1.6,1.4,3.4,1.4,5.5s-0.5,3.9-1.4,5.5
				s-2.2,2.7-3.8,3.6c-1.7,0.8-3.6,1.2-5.8,1.2h-6.8v-20.7H19C21.2,124.5,23.1,125,24.7,125.8z M24.5,140.5c1.3-1.3,1.9-3.2,1.9-5.5
				c0-2.4-0.6-4.3-1.9-5.6c-1.3-1.3-3.1-2-5.6-2h-3.4v15.1H19C21.4,142.5,23.2,141.8,24.5,140.5z"/>
			<path id="XMLID_534_" class="st0" d="M34,126c-0.4-0.4-0.6-0.9-0.6-1.5c0-0.6,0.2-1.1,0.6-1.5s0.9-0.6,1.5-0.6
				c0.6,0,1.1,0.2,1.5,0.6c0.4,0.4,0.6,0.9,0.6,1.5c0,0.6-0.2,1.1-0.6,1.5c-0.4,0.4-0.9,0.6-1.5,0.6C35,126.7,34.4,126.4,34,126z
				 M37.2,128.8v16.4h-3.4v-16.4H37.2z"/>
			<path id="XMLID_531_" class="st0" d="M48,129.3c1-0.5,2.1-0.8,3.4-0.8c1.4,0,2.7,0.4,3.9,1.1c1.2,0.7,2.1,1.7,2.8,3
				c0.7,1.3,1,2.7,1,4.4s-0.3,3.1-1,4.4c-0.7,1.3-1.6,2.3-2.8,3c-1.2,0.7-2.5,1.1-3.9,1.1c-1.3,0-2.4-0.3-3.3-0.8
				c-1-0.5-1.8-1.1-2.4-1.9V153h-3.4v-24.2h3.4v2.4C46.2,130.5,47,129.8,48,129.3z M54.9,134c-0.5-0.8-1.1-1.4-1.8-1.9
				c-0.8-0.4-1.6-0.6-2.5-0.6c-0.9,0-1.7,0.2-2.4,0.7c-0.8,0.4-1.4,1.1-1.8,1.9c-0.5,0.8-0.7,1.8-0.7,2.9c0,1.1,0.2,2.1,0.7,3
				c0.5,0.8,1.1,1.5,1.8,1.9c0.8,0.4,1.6,0.7,2.4,0.7c0.9,0,1.7-0.2,2.5-0.7c0.8-0.4,1.4-1.1,1.8-1.9c0.5-0.9,0.7-1.8,0.7-3
				S55.4,134.8,54.9,134z"/>
			<path id="XMLID_528_" class="st0" d="M62.8,132.6c0.7-1.3,1.6-2.3,2.8-3s2.5-1.1,3.9-1.1c1.3,0,2.4,0.3,3.4,0.8
				c1,0.5,1.7,1.1,2.3,1.9v-2.4h3.4v16.4h-3.4v-2.4c-0.6,0.8-1.4,1.4-2.4,1.9c-1,0.5-2.1,0.8-3.4,0.8c-1.4,0-2.7-0.4-3.9-1.1
				c-1.2-0.7-2.1-1.7-2.8-3c-0.7-1.3-1-2.8-1-4.4S62.2,133.8,62.8,132.6z M74.5,134.1c-0.5-0.8-1.1-1.5-1.8-1.9
				c-0.8-0.4-1.6-0.7-2.4-0.7c-0.9,0-1.7,0.2-2.4,0.6c-0.8,0.4-1.4,1.1-1.8,1.9c-0.5,0.8-0.7,1.8-0.7,2.9s0.2,2.1,0.7,3
				c0.5,0.9,1.1,1.5,1.8,1.9s1.6,0.7,2.4,0.7c0.9,0,1.7-0.2,2.4-0.7c0.8-0.4,1.4-1.1,1.8-1.9c0.5-0.8,0.7-1.8,0.7-3
				C75.2,135.9,75,134.9,74.5,134.1z"/>
			<path id="XMLID_526_" class="st0" d="M89,129.3c0.8-0.5,1.8-0.7,2.9-0.7v3.5h-0.9c-1.3,0-2.3,0.3-3,1c-0.7,0.7-1,1.8-1,3.5v8.6
				h-3.4v-16.4H87v2.4C87.5,130.4,88.2,129.7,89,129.3z"/>
			<path id="XMLID_524_" class="st0" d="M99.6,131.6v9.1c0,0.6,0.1,1.1,0.4,1.3c0.3,0.3,0.8,0.4,1.5,0.4h2.1v2.8h-2.7
				c-1.5,0-2.7-0.4-3.5-1.1c-0.8-0.7-1.2-1.9-1.2-3.5v-9.1h-1.9v-2.8h1.9v-4.1h3.4v4.1h4v2.8H99.6z"/>
			<path id="XMLID_521_" class="st0" d="M107.4,126c-0.4-0.4-0.6-0.9-0.6-1.5c0-0.6,0.2-1.1,0.6-1.5s0.9-0.6,1.5-0.6
				c0.6,0,1.1,0.2,1.5,0.6c0.4,0.4,0.6,0.9,0.6,1.5c0,0.6-0.2,1.1-0.6,1.5c-0.4,0.4-0.9,0.6-1.5,0.6
				C108.3,126.7,107.8,126.4,107.4,126z M110.6,128.8v16.4h-3.4v-16.4H110.6z"/>
			<path id="XMLID_519_" class="st0" d="M138.9,129.4c1,0.5,1.8,1.3,2.4,2.4c0.6,1.1,0.9,2.3,0.9,3.8v9.7h-3.4v-9.2
				c0-1.5-0.4-2.6-1.1-3.4c-0.7-0.8-1.7-1.2-3-1.2c-1.3,0-2.3,0.4-3,1.2c-0.7,0.8-1.1,1.9-1.1,3.4v9.2h-3.4v-9.2
				c0-1.5-0.4-2.6-1.1-3.4c-0.7-0.8-1.7-1.2-3-1.2c-1.3,0-2.3,0.4-3,1.2s-1.1,1.9-1.1,3.4v9.2h-3.4v-16.4h3.4v1.9
				c0.6-0.7,1.3-1.2,2.1-1.6c0.9-0.4,1.8-0.6,2.7-0.6c1.3,0,2.5,0.3,3.5,0.8c1,0.6,1.8,1.4,2.4,2.4c0.5-1,1.3-1.8,2.3-2.4
				c1.1-0.6,2.2-0.9,3.4-0.9C136.7,128.6,137.9,128.8,138.9,129.4z"/>
			<path id="XMLID_516_" class="st0" d="M162,138.3h-12.5c0.1,1.3,0.6,2.4,1.5,3.2c0.9,0.8,1.9,1.2,3.2,1.2c1.8,0,3.1-0.8,3.9-2.3
				h3.7c-0.5,1.5-1.4,2.7-2.7,3.7c-1.3,1-2.9,1.4-4.8,1.4c-1.6,0-3-0.4-4.2-1.1c-1.2-0.7-2.2-1.7-2.9-3s-1.1-2.8-1.1-4.4
				c0-1.7,0.3-3.2,1-4.4c0.7-1.3,1.6-2.3,2.9-3c1.2-0.7,2.7-1,4.3-1c1.5,0,2.9,0.3,4.1,1c1.2,0.7,2.2,1.6,2.8,2.8
				c0.7,1.2,1,2.6,1,4.2C162.1,137.2,162,137.8,162,138.3z M158.5,135.6c0-1.2-0.5-2.3-1.3-3c-0.9-0.8-2-1.1-3.2-1.1
				c-1.2,0-2.2,0.4-3,1.1c-0.8,0.7-1.3,1.8-1.5,3H158.5z"/>
			<path id="XMLID_514_" class="st0" d="M177.7,129.4c1,0.5,1.8,1.3,2.4,2.4c0.6,1.1,0.9,2.3,0.9,3.8v9.7h-3.4v-9.2
				c0-1.5-0.4-2.6-1.1-3.4c-0.7-0.8-1.7-1.2-3-1.2c-1.3,0-2.3,0.4-3,1.2s-1.1,1.9-1.1,3.4v9.2H166v-16.4h3.4v1.9
				c0.6-0.7,1.3-1.2,2.1-1.6c0.9-0.4,1.8-0.6,2.8-0.6C175.5,128.6,176.7,128.8,177.7,129.4z"/>
			<path id="XMLID_512_" class="st0" d="M189.8,131.6v9.1c0,0.6,0.1,1.1,0.4,1.3c0.3,0.3,0.8,0.4,1.5,0.4h2.1v2.8h-2.7
				c-1.5,0-2.7-0.4-3.5-1.1c-0.8-0.7-1.2-1.9-1.2-3.5v-9.1h-1.9v-2.8h1.9v-4.1h3.4v4.1h4v2.8H189.8z"/>
			<path id="XMLID_509_" class="st0" d="M200.3,144.4c-1.2-0.7-2.2-1.7-2.9-3s-1.1-2.8-1.1-4.4c0-1.7,0.4-3.1,1.1-4.4
				c0.7-1.3,1.7-2.3,3-3c1.3-0.7,2.7-1,4.3-1c1.6,0,3,0.3,4.3,1c1.3,0.7,2.3,1.7,3,3c0.7,1.3,1.1,2.8,1.1,4.4c0,1.7-0.4,3.1-1.1,4.4
				c-0.8,1.3-1.8,2.3-3.1,3c-1.3,0.7-2.7,1.1-4.3,1.1C203,145.5,201.6,145.1,200.3,144.4z M207,141.9c0.8-0.4,1.4-1,1.9-1.9
				c0.5-0.8,0.7-1.8,0.7-3c0-1.2-0.2-2.2-0.7-3c-0.5-0.8-1.1-1.4-1.8-1.9s-1.6-0.6-2.4-0.6s-1.7,0.2-2.4,0.6s-1.3,1-1.8,1.9
				c-0.4,0.8-0.7,1.8-0.7,3c0,1.8,0.5,3.1,1.4,4.1c0.9,1,2,1.4,3.4,1.4C205.4,142.5,206.2,142.3,207,141.9z"/>
			<path id="XMLID_507_" class="st0" d="M63,165.9v20.7h-3.4v-14.2l-6.3,14.2h-2.4l-6.3-14.2v14.2h-3.4v-20.7h3.7l7.3,16.2l7.2-16.2
				H63z"/>
			<path id="XMLID_504_" class="st0" d="M67.9,173.9c0.7-1.3,1.6-2.3,2.8-3c1.2-0.7,2.5-1.1,3.9-1.1c1.3,0,2.4,0.3,3.4,0.8
				c1,0.5,1.7,1.1,2.3,1.9v-2.4h3.4v16.4h-3.4v-2.4c-0.6,0.8-1.4,1.4-2.4,1.9c-1,0.5-2.1,0.8-3.4,0.8c-1.4,0-2.7-0.4-3.9-1.1
				c-1.2-0.7-2.1-1.7-2.8-3c-0.7-1.3-1-2.8-1-4.4C66.8,176.6,67.2,175.2,67.9,173.9z M79.6,175.4c-0.5-0.8-1.1-1.5-1.8-1.9
				c-0.8-0.4-1.6-0.7-2.4-0.7c-0.9,0-1.7,0.2-2.4,0.6c-0.8,0.4-1.4,1.1-1.8,1.9c-0.5,0.8-0.7,1.8-0.7,2.9c0,1.1,0.2,2.1,0.7,3
				c0.5,0.9,1.1,1.5,1.8,1.9c0.8,0.4,1.6,0.7,2.4,0.7c0.9,0,1.7-0.2,2.4-0.7c0.8-0.4,1.4-1.1,1.8-1.9c0.5-0.8,0.7-1.8,0.7-3
				C80.3,177.2,80,176.2,79.6,175.4z"/>
			<path id="XMLID_502_" class="st0" d="M92.6,172.9v9.1c0,0.6,0.1,1.1,0.4,1.3c0.3,0.3,0.8,0.4,1.5,0.4h2.1v2.8H94
				c-1.5,0-2.7-0.4-3.5-1.1s-1.2-1.9-1.2-3.5v-9.1h-1.9v-2.8h1.9v-4.1h3.4v4.1h4v2.8H92.6z"/>
			<path id="XMLID_499_" class="st0" d="M115.2,179.6h-12.5c0.1,1.3,0.6,2.4,1.5,3.2c0.9,0.8,1.9,1.2,3.2,1.2c1.8,0,3.1-0.8,3.9-2.3
				h3.7c-0.5,1.5-1.4,2.7-2.7,3.7c-1.3,1-2.9,1.4-4.8,1.4c-1.6,0-3-0.4-4.2-1.1c-1.2-0.7-2.2-1.7-2.9-3c-0.7-1.3-1.1-2.8-1.1-4.4
				c0-1.7,0.3-3.2,1-4.4c0.7-1.3,1.6-2.3,2.9-3c1.2-0.7,2.7-1,4.3-1c1.5,0,2.9,0.3,4.1,1c1.2,0.7,2.2,1.6,2.8,2.8
				c0.7,1.2,1,2.6,1,4.2C115.3,178.6,115.3,179.1,115.2,179.6z M111.8,176.9c0-1.2-0.5-2.3-1.3-3c-0.9-0.8-2-1.1-3.2-1.1
				c-1.2,0-2.2,0.4-3,1.1c-0.8,0.7-1.3,1.8-1.5,3H111.8z"/>
			<path id="XMLID_497_" class="st0" d="M142.5,170.7c1,0.5,1.8,1.3,2.4,2.4c0.6,1.1,0.9,2.3,0.9,3.8v9.7h-3.4v-9.2
				c0-1.5-0.4-2.6-1.1-3.4c-0.7-0.8-1.7-1.2-3-1.2c-1.3,0-2.3,0.4-3,1.2c-0.7,0.8-1.1,1.9-1.1,3.4v9.2h-3.4v-9.2
				c0-1.5-0.4-2.6-1.1-3.4c-0.7-0.8-1.7-1.2-3-1.2c-1.3,0-2.3,0.4-3,1.2s-1.1,1.9-1.1,3.4v9.2h-3.4v-16.4h3.4v1.9
				c0.6-0.7,1.3-1.2,2.1-1.6c0.9-0.4,1.8-0.6,2.7-0.6c1.3,0,2.5,0.3,3.5,0.8c1,0.6,1.8,1.4,2.4,2.4c0.5-1,1.3-1.8,2.3-2.4
				s2.2-0.9,3.4-0.9C140.3,169.9,141.5,170.2,142.5,170.7z"/>
			<path id="XMLID_494_" class="st0" d="M150.5,173.9c0.7-1.3,1.6-2.3,2.8-3c1.2-0.7,2.5-1.1,3.9-1.1c1.3,0,2.4,0.3,3.4,0.8
				c1,0.5,1.7,1.1,2.3,1.9v-2.4h3.4v16.4h-3.4v-2.4c-0.6,0.8-1.4,1.4-2.4,1.9c-1,0.5-2.1,0.8-3.4,0.8c-1.4,0-2.7-0.4-3.9-1.1
				c-1.2-0.7-2.1-1.7-2.8-3c-0.7-1.3-1-2.8-1-4.4C149.5,176.6,149.9,175.2,150.5,173.9z M162.2,175.4c-0.5-0.8-1.1-1.5-1.8-1.9
				c-0.8-0.4-1.6-0.7-2.4-0.7c-0.9,0-1.7,0.2-2.4,0.6c-0.8,0.4-1.4,1.1-1.8,1.9c-0.5,0.8-0.7,1.8-0.7,2.9c0,1.1,0.2,2.1,0.7,3
				c0.5,0.9,1.1,1.5,1.8,1.9c0.8,0.4,1.6,0.7,2.4,0.7c0.9,0,1.7-0.2,2.4-0.7c0.8-0.4,1.4-1.1,1.8-1.9c0.5-0.8,0.7-1.8,0.7-3
				C162.9,177.2,162.7,176.2,162.2,175.4z"/>
			<path id="XMLID_492_" class="st0" d="M175.3,172.9v9.1c0,0.6,0.1,1.1,0.4,1.3c0.3,0.3,0.8,0.4,1.5,0.4h2.1v2.8h-2.7
				c-1.5,0-2.7-0.4-3.5-1.1c-0.8-0.7-1.2-1.9-1.2-3.5v-9.1H170v-2.8h1.9v-4.1h3.4v4.1h4v2.8H175.3z"/>
			<path id="XMLID_489_" class="st0" d="M183.1,167.4c-0.4-0.4-0.6-0.9-0.6-1.5s0.2-1.1,0.6-1.5s0.9-0.6,1.5-0.6
				c0.6,0,1.1,0.2,1.5,0.6c0.4,0.4,0.6,0.9,0.6,1.5s-0.2,1.1-0.6,1.5c-0.4,0.4-0.9,0.6-1.5,0.6C184.1,168,183.5,167.8,183.1,167.4z
				 M186.3,170.2v16.4H183v-16.4H186.3z"/>
			<path id="XMLID_487_" class="st0" d="M191.2,173.9c0.7-1.3,1.6-2.3,2.8-3c1.2-0.7,2.6-1,4.2-1c2,0,3.6,0.5,4.9,1.4
				c1.3,0.9,2.2,2.3,2.6,4h-3.7c-0.3-0.8-0.8-1.4-1.4-1.9c-0.7-0.5-1.5-0.7-2.5-0.7c-1.4,0-2.5,0.5-3.3,1.5c-0.8,1-1.2,2.4-1.2,4.1
				c0,1.8,0.4,3.1,1.2,4.1c0.8,1,1.9,1.5,3.3,1.5c2,0,3.3-0.9,3.9-2.6h3.7c-0.5,1.7-1.4,3-2.7,4c-1.3,1-2.9,1.5-4.9,1.5
				c-1.6,0-3-0.4-4.2-1.1c-1.2-0.7-2.2-1.7-2.8-3c-0.7-1.3-1-2.8-1-4.4C190.2,176.7,190.6,175.2,191.2,173.9z"/>
			<path id="XMLID_484_" class="st0" d="M209.6,173.9c0.7-1.3,1.6-2.3,2.8-3c1.2-0.7,2.5-1.1,3.9-1.1c1.3,0,2.4,0.3,3.4,0.8
				c1,0.5,1.7,1.1,2.3,1.9v-2.4h3.4v16.4H222v-2.4c-0.6,0.8-1.4,1.4-2.4,1.9c-1,0.5-2.1,0.8-3.4,0.8c-1.4,0-2.7-0.4-3.9-1.1
				c-1.2-0.7-2.1-1.7-2.8-3c-0.7-1.3-1-2.8-1-4.4C208.6,176.6,208.9,175.2,209.6,173.9z M221.3,175.4c-0.5-0.8-1.1-1.5-1.8-1.9
				c-0.8-0.4-1.6-0.7-2.4-0.7c-0.9,0-1.7,0.2-2.4,0.6c-0.8,0.4-1.4,1.1-1.8,1.9c-0.5,0.8-0.7,1.8-0.7,2.9c0,1.1,0.2,2.1,0.7,3
				c0.5,0.9,1.1,1.5,1.8,1.9c0.8,0.4,1.6,0.7,2.4,0.7c0.9,0,1.7-0.2,2.4-0.7c0.8-0.4,1.4-1.1,1.8-1.9c0.5-0.8,0.7-1.8,0.7-3
				C222,177.2,221.8,176.2,221.3,175.4z"/>
			<path id="XMLID_481_" class="st0" d="M1,173.5c0.7-1.3,1.6-2.3,2.8-3s2.5-1.1,3.9-1.1c1.1,0,2.1,0.2,3.2,0.7
				c1,0.5,1.9,1.1,2.5,1.9v-7.9h3.4v22h-3.4v-2.5c-0.6,0.8-1.3,1.4-2.3,2c-1,0.5-2.1,0.8-3.4,0.8c-1.4,0-2.7-0.4-3.9-1.1
				c-1.2-0.7-2.1-1.7-2.8-3c-0.7-1.3-1-2.8-1-4.4S0.3,174.8,1,173.5z M12.7,175c-0.5-0.8-1.1-1.5-1.8-1.9c-0.8-0.4-1.6-0.7-2.4-0.7
				c-0.9,0-1.7,0.2-2.4,0.6c-0.8,0.4-1.4,1.1-1.8,1.9c-0.5,0.8-0.7,1.8-0.7,2.9s0.2,2.1,0.7,3c0.5,0.9,1.1,1.5,1.8,1.9
				s1.6,0.7,2.4,0.7c0.9,0,1.7-0.2,2.4-0.7c0.8-0.4,1.4-1.1,1.8-1.9c0.5-0.8,0.7-1.8,0.7-3C13.4,176.8,13.2,175.8,12.7,175z"/>
			<path id="XMLID_478_" class="st0" d="M22,166.9c-0.4-0.4-0.6-0.9-0.6-1.5c0-0.6,0.2-1.1,0.6-1.5s0.9-0.6,1.5-0.6
				c0.6,0,1.1,0.2,1.5,0.6c0.4,0.4,0.6,0.9,0.6,1.5c0,0.6-0.2,1.1-0.6,1.5c-0.4,0.4-0.9,0.6-1.5,0.6C23,167.6,22.4,167.4,22,166.9z
				 M25.2,169.7v16.4h-3.4v-16.4H25.2z"/>
		</g>
	</g>
</g>
</svg>
