<?xml version="1.0" encoding="utf-8"?>
<!-- Generator: Adobe Illustrator 19.0.0, SVG Export Plug-In . SVG Version: 6.00 Build 0)  -->
<svg version="1.1" id="Livello_1" xmlns="http://www.w3.org/2000/svg" xmlns:xlink="http://www.w3.org/1999/xlink" x="0px" y="0px"
	 viewBox="0 0 385.8 106.6" style="enable-background:new 0 0 385.8 106.6;" xml:space="preserve">
<style type="text/css">
	.st0{fill:#08467B;}
</style>
<g id="XMLID_321_">
	<g id="XMLID_325_">
		<path id="XMLID_345_" class="st0" d="M124.2,21.5c-3-13.7-7.9-21.5-7.9-21.5L68.5,28.5c0.4,0.8,0.7,1.6,0.9,2.4L124.2,21.5z"/>
		<path id="XMLID_344_" class="st0" d="M70,36.3l54.6,10.1c2.1-8.4,0.2-20.9,0.2-20.9L70,33.7c0.1,0.6,0.1,1.1,0.1,1.7
			C70,35.7,70,36,70,36.3z"/>
		<path id="XMLID_343_" class="st0" d="M116.4,69.9c4.9-7.4,7.3-19.2,7.3-19.2L69.7,39c-0.2,1.1-0.6,2.1-1,3.1L116.4,69.9z"/>
		<path id="XMLID_342_" class="st0" d="M100.7,89.2c6.6-4.9,13.5-15.8,13.5-15.8L67.5,44.3c-0.6,0.9-1.3,1.8-2,2.6L100.7,89.2z"/>
		<path id="XMLID_341_" class="st0" d="M79.4,101.9c9.8-3.5,18.3-10.4,18.3-10.4L63.6,48.5c-0.9,0.7-1.8,1.3-2.9,1.8L79.4,101.9z"/>
		<path id="XMLID_340_" class="st0" d="M55,106.6c15-0.7,19.9-3,19.9-3L58.4,51.2c-1,0.3-2,0.5-3.1,0.6L55,106.6z"/>
		<path id="XMLID_339_" class="st0" d="M31.1,100.9c10.9,5.7,19.8,5.7,19.8,5.7l1.7-54.8c-1.1-0.1-2.2-0.2-3.2-0.5L31.1,100.9z"/>
		<path id="XMLID_338_" class="st0" d="M12.5,86.1c5.9,8,15.1,12.9,15.1,12.9l19.3-48.5c-1-0.4-2-1-2.9-1.6L12.5,86.1z"/>
		<path id="XMLID_337_" class="st0" d="M39.9,44.5L2.1,66.3c3,10.3,7.8,16.4,7.8,16.4L42,47.1C41.2,46.4,40.5,45.5,39.9,44.5z"/>
		<path id="XMLID_336_" class="st0" d="M0.2,45.7c-0.8,10,0.9,16.4,0.9,16.4l37.6-19.7c-0.5-1-0.8-2-1.1-3.1L0.2,45.7z"/>
		<path id="XMLID_335_" class="st0" d="M37.3,33.5L5.9,27.8c-5.4,9.7-5.2,14-5.2,14l36.5-5c0-0.4-0.1-0.9-0.1-1.3
			C37.1,34.8,37.2,34.1,37.3,33.5z"/>
		<path id="XMLID_333_" class="st0" d="M16.1,14.6c-6.8,6.4-8.4,10.1-8.4,10.1l30.1,6.2c0.3-1.1,0.7-2.1,1.2-3L16.1,14.6z"/>
		<path id="XMLID_332_" class="st0" d="M42,23.8L28.7,6.4c-5.8,2.3-9.8,5.4-9.8,5.4l21,14.4C40.6,25.3,41.2,24.5,42,23.8z"/>
		<path id="XMLID_330_" class="st0" d="M40.7,2.5c-5.2,0.8-9.5,2.7-9.5,2.7l13.2,16.5c0.8-0.5,1.7-1,2.6-1.4L40.7,2.5z"/>
		<path id="XMLID_329_" class="st0" d="M52.6,1.9c-6.2-0.5-8.8,0.1-8.8,0.1l5.8,17.4c1-0.2,2-0.4,3-0.4V1.9z"/>
		<path id="XMLID_328_" class="st0" d="M63.8,4c-3.4-1.2-8-1.9-8-1.9l-0.7,16.9c1,0.1,2,0.3,3,0.6L63.8,4z"/>
		<path id="XMLID_327_" class="st0" d="M67.1,26l17-9.8c-3.5-3.7-7.1-5.9-7.1-5.9l-12.3,13C65.6,24.1,66.4,25,67.1,26z"/>
		<path id="XMLID_326_" class="st0" d="M74.4,8.7c-2.7-1.7-7.5-3.6-7.5-3.6l-6.5,15.4c1.1,0.5,2.1,1.1,3,1.8L74.4,8.7z"/>
	</g>
	<g id="XMLID_388_">
		<g id="XMLID_574_">
			<path id="XMLID_634_" class="st0" d="M168,8.3c1.6,0.8,2.8,2,3.7,3.5c0.9,1.5,1.3,3.3,1.3,5.3c0,2-0.4,3.8-1.3,5.3
				c-0.9,1.5-2.1,2.6-3.7,3.4c-1.6,0.8-3.5,1.2-5.6,1.2h-6.5V7h6.5C164.6,7,166.4,7.5,168,8.3z M167.8,22.5c1.2-1.3,1.9-3,1.9-5.3
				c0-2.3-0.6-4.1-1.9-5.4c-1.2-1.3-3-2-5.4-2h-3.2v14.6h3.2C164.8,24.4,166.6,23.7,167.8,22.5z"/>
			<path id="XMLID_631_" class="st0" d="M177,8.5c-0.4-0.4-0.6-0.9-0.6-1.5c0-0.6,0.2-1.1,0.6-1.5c0.4-0.4,0.9-0.6,1.5-0.6
				c0.6,0,1.1,0.2,1.5,0.6c0.4,0.4,0.6,0.9,0.6,1.5c0,0.6-0.2,1.1-0.6,1.5c-0.4,0.4-0.9,0.6-1.5,0.6C177.9,9.1,177.4,8.9,177,8.5z
				 M180.1,11.2V27h-3.3V11.2H180.1z"/>
			<path id="XMLID_628_" class="st0" d="M190.5,11.7c1-0.5,2-0.7,3.2-0.7c1.4,0,2.6,0.3,3.8,1c1.1,0.7,2,1.6,2.7,2.9
				c0.7,1.2,1,2.6,1,4.2c0,1.6-0.3,3-1,4.3s-1.5,2.2-2.7,2.9c-1.1,0.7-2.4,1-3.8,1c-1.2,0-2.3-0.2-3.2-0.7c-0.9-0.5-1.7-1.1-2.3-1.8
				v9.8h-3.3V11.2h3.3v2.3C188.8,12.8,189.5,12.2,190.5,11.7z M197.2,16.2c-0.5-0.8-1-1.4-1.8-1.8c-0.7-0.4-1.5-0.6-2.4-0.6
				c-0.8,0-1.6,0.2-2.3,0.6c-0.7,0.4-1.3,1-1.8,1.8c-0.5,0.8-0.7,1.8-0.7,2.8c0,1.1,0.2,2,0.7,2.9c0.5,0.8,1,1.4,1.8,1.9
				c0.7,0.4,1.5,0.6,2.3,0.6c0.8,0,1.6-0.2,2.4-0.6c0.7-0.4,1.3-1.1,1.8-1.9c0.4-0.8,0.7-1.8,0.7-2.9
				C197.8,17.9,197.6,17,197.2,16.2z"/>
			<path id="XMLID_625_" class="st0" d="M204.8,14.8c0.7-1.2,1.6-2.2,2.7-2.9s2.4-1,3.8-1c1.2,0,2.3,0.2,3.3,0.7
				c0.9,0.5,1.7,1.1,2.2,1.8v-2.3h3.3V27h-3.3v-2.4c-0.6,0.7-1.3,1.4-2.3,1.9c-1,0.5-2.1,0.7-3.3,0.7c-1.4,0-2.6-0.3-3.7-1
				s-2-1.7-2.7-2.9c-0.7-1.3-1-2.7-1-4.3C203.8,17.4,204.2,16,204.8,14.8z M216.1,16.2c-0.5-0.8-1-1.4-1.8-1.8
				c-0.7-0.4-1.5-0.6-2.4-0.6s-1.6,0.2-2.4,0.6c-0.7,0.4-1.3,1-1.8,1.8c-0.4,0.8-0.7,1.7-0.7,2.8c0,1.1,0.2,2.1,0.7,2.9
				c0.5,0.8,1,1.5,1.8,1.9c0.7,0.4,1.5,0.6,2.3,0.6c0.8,0,1.6-0.2,2.4-0.6c0.7-0.4,1.3-1,1.8-1.9c0.5-0.8,0.7-1.8,0.7-2.9
				C216.8,18,216.6,17.1,216.1,16.2z"/>
			<path id="XMLID_623_" class="st0" d="M230.1,11.6c0.8-0.5,1.7-0.7,2.8-0.7v3.4h-0.8c-1.3,0-2.3,0.3-2.9,1c-0.7,0.7-1,1.8-1,3.4
				V27h-3.3V11.2h3.3v2.3C228.7,12.7,229.3,12.1,230.1,11.6z"/>
			<path id="XMLID_621_" class="st0" d="M240.3,13.9v8.8c0,0.6,0.1,1,0.4,1.3c0.3,0.3,0.8,0.4,1.4,0.4h2V27h-2.6
				c-1.5,0-2.6-0.3-3.4-1s-1.2-1.8-1.2-3.4v-8.8h-1.9v-2.7h1.9V7.3h3.3v3.9h3.9v2.7H240.3z"/>
			<path id="XMLID_618_" class="st0" d="M247.9,8.5c-0.4-0.4-0.6-0.9-0.6-1.5c0-0.6,0.2-1.1,0.6-1.5c0.4-0.4,0.9-0.6,1.5-0.6
				c0.6,0,1.1,0.2,1.5,0.6c0.4,0.4,0.6,0.9,0.6,1.5c0,0.6-0.2,1.1-0.6,1.5c-0.4,0.4-0.9,0.6-1.5,0.6C248.8,9.1,248.3,8.9,247.9,8.5z
				 M251,11.2V27h-3.3V11.2H251z"/>
			<path id="XMLID_616_" class="st0" d="M278.3,11.7c1,0.5,1.8,1.3,2.3,2.3c0.6,1,0.8,2.2,0.8,3.7V27h-3.2v-8.9
				c0-1.4-0.4-2.5-1.1-3.3c-0.7-0.8-1.7-1.1-2.9-1.1s-2.2,0.4-2.9,1.1c-0.7,0.8-1.1,1.8-1.1,3.3V27h-3.2v-8.9c0-1.4-0.4-2.5-1.1-3.3
				c-0.7-0.8-1.7-1.1-2.9-1.1c-1.2,0-2.2,0.4-2.9,1.1c-0.7,0.8-1.1,1.8-1.1,3.3V27h-3.3V11.2h3.3V13c0.5-0.7,1.2-1.2,2-1.5
				c0.8-0.4,1.7-0.5,2.6-0.5c1.3,0,2.4,0.3,3.4,0.8c1,0.5,1.8,1.3,2.3,2.3c0.5-1,1.2-1.7,2.2-2.3c1-0.6,2.1-0.8,3.3-0.8
				C276.2,10.9,277.4,11.2,278.3,11.7z"/>
			<path id="XMLID_613_" class="st0" d="M300.6,20.3h-12.1c0.1,1.3,0.6,2.3,1.4,3c0.8,0.8,1.9,1.2,3.1,1.2c1.8,0,3-0.7,3.7-2.2h3.5
				c-0.5,1.5-1.3,2.7-2.6,3.6c-1.3,0.9-2.8,1.4-4.7,1.4c-1.5,0-2.9-0.3-4.1-1c-1.2-0.7-2.1-1.6-2.8-2.9c-0.7-1.2-1-2.7-1-4.3
				c0-1.6,0.3-3.1,1-4.3c0.7-1.2,1.6-2.2,2.8-2.9c1.2-0.7,2.6-1,4.1-1c1.5,0,2.8,0.3,4,1c1.2,0.7,2.1,1.6,2.7,2.7
				c0.7,1.2,1,2.5,1,4.1C300.7,19.3,300.7,19.9,300.6,20.3z M297.3,17.7c0-1.2-0.5-2.2-1.3-2.9c-0.8-0.7-1.9-1.1-3.1-1.1
				c-1.1,0-2.1,0.4-2.9,1.1c-0.8,0.7-1.3,1.7-1.4,2.9H297.3z"/>
			<path id="XMLID_611_" class="st0" d="M315.8,11.7c1,0.5,1.8,1.3,2.3,2.3c0.6,1,0.8,2.2,0.8,3.7V27h-3.2v-8.9
				c0-1.4-0.4-2.5-1.1-3.3c-0.7-0.8-1.7-1.1-2.9-1.1c-1.2,0-2.2,0.4-2.9,1.1c-0.7,0.8-1.1,1.8-1.1,3.3V27h-3.3V11.2h3.3V13
				c0.5-0.7,1.2-1.2,2.1-1.5c0.8-0.4,1.7-0.5,2.7-0.5C313.7,10.9,314.8,11.2,315.8,11.7z"/>
			<path id="XMLID_609_" class="st0" d="M327.5,13.9v8.8c0,0.6,0.1,1,0.4,1.3c0.3,0.3,0.8,0.4,1.4,0.4h2V27h-2.6
				c-1.5,0-2.6-0.3-3.4-1s-1.2-1.8-1.2-3.4v-8.8h-1.9v-2.7h1.9V7.3h3.3v3.9h3.9v2.7H327.5z"/>
			<path id="XMLID_606_" class="st0" d="M337.7,26.3c-1.2-0.7-2.2-1.6-2.8-2.9c-0.7-1.2-1-2.7-1-4.3c0-1.6,0.4-3,1.1-4.3
				c0.7-1.2,1.7-2.2,2.9-2.9c1.2-0.7,2.6-1,4.1-1c1.5,0,2.9,0.3,4.1,1c1.2,0.7,2.2,1.6,2.9,2.9c0.7,1.2,1.1,2.7,1.1,4.3
				c0,1.6-0.4,3-1.1,4.3c-0.7,1.2-1.7,2.2-3,2.9c-1.3,0.7-2.6,1-4.2,1C340.2,27.3,338.9,26.9,337.7,26.3z M344.1,23.8
				c0.7-0.4,1.3-1,1.8-1.8c0.5-0.8,0.7-1.8,0.7-2.9c0-1.1-0.2-2.1-0.7-2.9c-0.4-0.8-1-1.4-1.8-1.8c-0.7-0.4-1.5-0.6-2.4-0.6
				c-0.8,0-1.6,0.2-2.3,0.6c-0.7,0.4-1.3,1-1.7,1.8s-0.6,1.8-0.6,2.9c0,1.7,0.4,3,1.3,4c0.9,0.9,2,1.4,3.3,1.4
				C342.6,24.4,343.4,24.2,344.1,23.8z"/>
			<path id="XMLID_604_" class="st0" d="M214.7,45.4v20h-3.3V51.7l-6.1,13.7H203l-6.1-13.7v13.7h-3.3v-20h3.5l7,15.7l7-15.7H214.7z"
				/>
			<path id="XMLID_601_" class="st0" d="M219.4,53.1c0.7-1.2,1.6-2.2,2.7-2.9c1.1-0.7,2.4-1,3.8-1c1.2,0,2.3,0.2,3.3,0.7
				c0.9,0.5,1.7,1.1,2.2,1.8v-2.3h3.3v15.8h-3.3V63c-0.6,0.7-1.3,1.4-2.3,1.9c-1,0.5-2.1,0.7-3.3,0.7c-1.4,0-2.6-0.3-3.7-1
				c-1.1-0.7-2-1.7-2.7-2.9c-0.7-1.3-1-2.7-1-4.3C218.4,55.8,218.8,54.4,219.4,53.1z M230.7,54.6c-0.5-0.8-1-1.4-1.8-1.8
				c-0.7-0.4-1.5-0.6-2.4-0.6s-1.6,0.2-2.4,0.6c-0.7,0.4-1.3,1-1.8,1.8c-0.4,0.8-0.7,1.7-0.7,2.8c0,1.1,0.2,2.1,0.7,2.9
				c0.5,0.8,1,1.5,1.8,1.9c0.7,0.4,1.5,0.6,2.3,0.6c0.8,0,1.6-0.2,2.4-0.6c0.7-0.4,1.3-1,1.8-1.9c0.5-0.8,0.7-1.8,0.7-2.9
				C231.4,56.3,231.2,55.4,230.7,54.6z"/>
			<path id="XMLID_599_" class="st0" d="M243.3,52.2V61c0,0.6,0.1,1,0.4,1.3c0.3,0.3,0.8,0.4,1.4,0.4h2v2.7h-2.6
				c-1.5,0-2.6-0.3-3.4-1c-0.8-0.7-1.2-1.8-1.2-3.4v-8.8h-1.9v-2.7h1.9v-3.9h3.3v3.9h3.9v2.7H243.3z"/>
			<path id="XMLID_596_" class="st0" d="M265.1,58.7H253c0.1,1.3,0.6,2.3,1.4,3c0.8,0.8,1.9,1.2,3.1,1.2c1.8,0,3-0.7,3.7-2.2h3.5
				c-0.5,1.5-1.3,2.7-2.6,3.6c-1.3,0.9-2.8,1.4-4.7,1.4c-1.5,0-2.9-0.3-4.1-1c-1.2-0.7-2.1-1.6-2.8-2.9c-0.7-1.2-1-2.7-1-4.3
				c0-1.6,0.3-3.1,1-4.3c0.7-1.2,1.6-2.2,2.8-2.9c1.2-0.7,2.6-1,4.1-1c1.5,0,2.8,0.3,4,1c1.2,0.7,2.1,1.6,2.7,2.7
				c0.7,1.2,1,2.5,1,4.1C265.3,57.6,265.2,58.2,265.1,58.7z M261.8,56c0-1.2-0.5-2.2-1.3-2.9c-0.8-0.7-1.9-1.1-3.1-1.1
				c-1.1,0-2.1,0.4-2.9,1.1c-0.8,0.7-1.3,1.7-1.4,2.9H261.8z"/>
			<path id="XMLID_594_" class="st0" d="M291.5,50c1,0.5,1.8,1.3,2.3,2.3c0.6,1,0.8,2.2,0.8,3.7v9.3h-3.2v-8.9
				c0-1.4-0.4-2.5-1.1-3.3c-0.7-0.8-1.7-1.1-2.9-1.1s-2.2,0.4-2.9,1.1c-0.7,0.8-1.1,1.8-1.1,3.3v8.9h-3.2v-8.9
				c0-1.4-0.4-2.5-1.1-3.3c-0.7-0.8-1.7-1.1-2.9-1.1c-1.2,0-2.2,0.4-2.9,1.1c-0.7,0.8-1.1,1.8-1.1,3.3v8.9H269V49.5h3.3v1.8
				c0.5-0.7,1.2-1.2,2-1.5c0.8-0.4,1.7-0.5,2.6-0.5c1.3,0,2.4,0.3,3.4,0.8c1,0.5,1.8,1.3,2.3,2.3c0.5-1,1.2-1.7,2.2-2.3
				c1-0.6,2.1-0.8,3.3-0.8C289.4,49.3,290.5,49.5,291.5,50z"/>
			<path id="XMLID_591_" class="st0" d="M299.3,53.1c0.7-1.2,1.6-2.2,2.7-2.9c1.1-0.7,2.4-1,3.8-1c1.2,0,2.3,0.2,3.3,0.7
				c0.9,0.5,1.7,1.1,2.2,1.8v-2.3h3.3v15.8h-3.3V63c-0.6,0.7-1.3,1.4-2.3,1.9c-1,0.5-2.1,0.7-3.3,0.7c-1.4,0-2.6-0.3-3.7-1
				c-1.1-0.7-2-1.7-2.7-2.9c-0.7-1.3-1-2.7-1-4.3C298.3,55.8,298.6,54.4,299.3,53.1z M310.6,54.6c-0.5-0.8-1-1.4-1.8-1.8
				s-1.5-0.6-2.4-0.6s-1.6,0.2-2.4,0.6c-0.7,0.4-1.3,1-1.8,1.8c-0.4,0.8-0.7,1.7-0.7,2.8c0,1.1,0.2,2.1,0.7,2.9
				c0.5,0.8,1,1.5,1.8,1.9c0.7,0.4,1.5,0.6,2.3,0.6c0.8,0,1.6-0.2,2.4-0.6c0.7-0.4,1.3-1,1.8-1.9c0.5-0.8,0.7-1.8,0.7-2.9
				C311.3,56.3,311,55.4,310.6,54.6z"/>
			<path id="XMLID_589_" class="st0" d="M323.2,52.2V61c0,0.6,0.1,1,0.4,1.3c0.3,0.3,0.8,0.4,1.4,0.4h2v2.7h-2.6
				c-1.5,0-2.6-0.3-3.4-1c-0.8-0.7-1.2-1.8-1.2-3.4v-8.8H318v-2.7h1.9v-3.9h3.3v3.9h3.9v2.7H323.2z"/>
			<path id="XMLID_586_" class="st0" d="M330.8,46.8c-0.4-0.4-0.6-0.9-0.6-1.5c0-0.6,0.2-1.1,0.6-1.5s0.9-0.6,1.5-0.6
				c0.6,0,1.1,0.2,1.5,0.6c0.4,0.4,0.6,0.9,0.6,1.5c0,0.6-0.2,1.1-0.6,1.5c-0.4,0.4-0.9,0.6-1.5,0.6
				C331.7,47.4,331.2,47.2,330.8,46.8z M333.9,49.5v15.8h-3.3V49.5H333.9z"/>
			<path id="XMLID_584_" class="st0" d="M338.6,53.1c0.7-1.2,1.6-2.2,2.7-2.9c1.2-0.7,2.5-1,4-1c1.9,0,3.5,0.5,4.8,1.4
				c1.3,0.9,2.1,2.2,2.5,3.9h-3.5c-0.3-0.8-0.7-1.4-1.4-1.8s-1.4-0.7-2.4-0.7c-1.3,0-2.4,0.5-3.2,1.4c-0.8,0.9-1.2,2.3-1.2,4
				c0,1.7,0.4,3,1.2,4c0.8,1,1.9,1.4,3.2,1.4c1.9,0,3.2-0.8,3.8-2.5h3.5c-0.5,1.6-1.3,2.9-2.6,3.8c-1.3,0.9-2.8,1.4-4.7,1.4
				c-1.5,0-2.9-0.3-4-1c-1.2-0.7-2.1-1.6-2.7-2.9c-0.7-1.2-1-2.7-1-4.3C337.6,55.8,337.9,54.4,338.6,53.1z"/>
			<path id="XMLID_581_" class="st0" d="M356.4,53.1c0.7-1.2,1.6-2.2,2.7-2.9c1.1-0.7,2.4-1,3.8-1c1.2,0,2.3,0.2,3.3,0.7
				c0.9,0.5,1.7,1.1,2.2,1.8v-2.3h3.3v15.8h-3.3V63c-0.6,0.7-1.3,1.4-2.3,1.9c-1,0.5-2.1,0.7-3.3,0.7c-1.4,0-2.6-0.3-3.7-1
				c-1.1-0.7-2-1.7-2.7-2.9c-0.7-1.3-1-2.7-1-4.3C355.4,55.8,355.7,54.4,356.4,53.1z M367.7,54.6c-0.5-0.8-1-1.4-1.8-1.8
				s-1.5-0.6-2.4-0.6s-1.6,0.2-2.4,0.6c-0.7,0.4-1.3,1-1.8,1.8c-0.4,0.8-0.7,1.7-0.7,2.8c0,1.1,0.2,2.1,0.7,2.9
				c0.5,0.8,1,1.5,1.8,1.9c0.7,0.4,1.5,0.6,2.3,0.6c0.8,0,1.6-0.2,2.4-0.6c0.7-0.4,1.3-1,1.8-1.9c0.5-0.8,0.7-1.8,0.7-2.9
				C368.4,56.3,368.1,55.4,367.7,54.6z"/>
			<path id="XMLID_578_" class="st0" d="M156.9,52.8c0.7-1.2,1.6-2.2,2.7-2.9s2.4-1,3.8-1c1,0,2.1,0.2,3.1,0.7c1,0.5,1.8,1,2.4,1.8
				v-7.6h3.3V65h-3.3v-2.4c-0.5,0.8-1.3,1.4-2.2,1.9c-0.9,0.5-2,0.7-3.3,0.7c-1.4,0-2.6-0.3-3.8-1c-1.1-0.7-2-1.7-2.7-2.9
				c-0.7-1.3-1-2.7-1-4.3C155.9,55.5,156.2,54.1,156.9,52.8z M168.2,54.3c-0.5-0.8-1-1.4-1.8-1.8c-0.7-0.4-1.5-0.6-2.4-0.6
				c-0.8,0-1.6,0.2-2.4,0.6c-0.7,0.4-1.3,1-1.8,1.8c-0.4,0.8-0.7,1.7-0.7,2.8c0,1.1,0.2,2.1,0.7,2.9c0.5,0.8,1,1.5,1.8,1.9
				c0.7,0.4,1.5,0.6,2.3,0.6c0.8,0,1.6-0.2,2.4-0.6c0.7-0.4,1.3-1,1.8-1.9c0.5-0.8,0.7-1.8,0.7-2.9C168.9,56,168.7,55.1,168.2,54.3z
				"/>
			<path id="XMLID_575_" class="st0" d="M177.2,46.5c-0.4-0.4-0.6-0.9-0.6-1.5c0-0.6,0.2-1.1,0.6-1.5c0.4-0.4,0.9-0.6,1.5-0.6
				c0.6,0,1.1,0.2,1.5,0.6c0.4,0.4,0.6,0.9,0.6,1.5c0,0.6-0.2,1.1-0.6,1.5c-0.4,0.4-0.9,0.6-1.5,0.6
				C178.1,47.1,177.6,46.9,177.2,46.5z M180.3,49.2V65H177V49.2H180.3z"/>
		</g>
	</g>
	<g id="XMLID_320_">
		<path id="XMLID_323_" class="st0" d="M158,84.3V97c0,2,0.5,3.5,1.4,4.4c0.9,1,2.2,1.4,3.9,1.4c1.6,0,2.9-0.5,3.9-1.4
			c0.9-0.9,1.4-2.4,1.4-4.4V84.3h2v12.6c0,2.5-0.7,4.5-2,5.8c-1.4,1.3-3.1,1.9-5.3,1.9s-3.9-0.6-5.3-1.9c-1.4-1.3-2-3.2-2-5.8V84.3
			H158z"/>
		<path id="XMLID_346_" class="st0" d="M186.9,90.2c1.2,1.2,1.8,2.8,1.8,5v9.2h-2v-9c0-1.7-0.4-3-1.3-3.9c-0.9-0.9-2-1.4-3.5-1.4
			c-1.5,0-2.7,0.5-3.6,1.4c-0.9,1-1.4,2.4-1.4,4.2v8.6h-2V88.7h2v2.7c0.5-1,1.2-1.7,2.2-2.2c0.9-0.5,2-0.8,3.2-0.8
			C184.1,88.4,185.7,89,186.9,90.2z"/>
		<path id="XMLID_348_" class="st0" d="M192.9,85.3c-0.3-0.3-0.4-0.6-0.4-1.1c0-0.4,0.1-0.8,0.4-1c0.3-0.3,0.6-0.4,1-0.4
			c0.4,0,0.7,0.1,1,0.4c0.3,0.3,0.4,0.6,0.4,1c0,0.4-0.1,0.8-0.4,1.1c-0.3,0.3-0.6,0.4-1,0.4C193.5,85.8,193.2,85.6,192.9,85.3z
			 M194.9,88.7v15.7h-2V88.7H194.9z"/>
		<path id="XMLID_351_" class="st0" d="M204.9,102.5l5.3-13.7h2.1l-6.3,15.7h-2.3l-6.3-15.7h2.2L204.9,102.5z"/>
		<path id="XMLID_353_" class="st0" d="M229,97.3h-13c0.1,1.2,0.3,2.2,0.9,3c0.5,0.8,1.2,1.5,2,1.9c0.8,0.4,1.8,0.6,2.8,0.6
			c1.3,0,2.4-0.3,3.3-0.9s1.5-1.5,1.8-2.6h2.1c-0.4,1.5-1.2,2.8-2.5,3.8c-1.3,1-2.8,1.5-4.7,1.5c-1.5,0-2.8-0.3-4-1
			c-1.2-0.7-2.1-1.6-2.7-2.8c-0.7-1.2-1-2.6-1-4.3c0-1.6,0.3-3.1,1-4.3c0.7-1.2,1.6-2.2,2.7-2.8c1.2-0.7,2.5-1,4-1s2.8,0.3,3.9,1
			c1.1,0.7,2,1.5,2.6,2.6c0.6,1.1,0.9,2.3,0.9,3.7C229.1,96.5,229.1,97,229,97.3z M226.3,92.7c-0.5-0.8-1.2-1.4-2-1.9
			c-0.8-0.4-1.8-0.6-2.8-0.6c-1.5,0-2.8,0.5-3.8,1.4c-1.1,1-1.6,2.3-1.8,4.1h11C227.1,94.5,226.8,93.5,226.3,92.7z"/>
		<path id="XMLID_358_" class="st0" d="M236.6,89.2c0.9-0.5,2-0.8,3.3-0.8v2.1h-0.5c-1.5,0-2.6,0.4-3.5,1.2
			c-0.9,0.8-1.3,2.1-1.3,3.9v8.8h-2V88.7h2v2.8C235,90.5,235.7,89.8,236.6,89.2z"/>
		<path id="XMLID_360_" class="st0" d="M243.8,103.4c-1.1-0.8-1.8-2-1.9-3.4h2.1c0.1,0.9,0.5,1.6,1.3,2.1c0.7,0.5,1.7,0.8,3,0.8
			c1.1,0,1.9-0.3,2.6-0.8c0.6-0.5,0.9-1.2,0.9-1.9c0-0.5-0.2-1-0.5-1.3c-0.3-0.3-0.8-0.6-1.3-0.8c-0.5-0.2-1.2-0.4-2.1-0.6
			c-1.2-0.3-2.1-0.6-2.8-0.9c-0.7-0.3-1.3-0.8-1.9-1.4c-0.5-0.6-0.8-1.4-0.8-2.4c0-0.8,0.2-1.5,0.7-2.1c0.5-0.7,1.1-1.2,2-1.6
			c0.8-0.4,1.8-0.6,2.9-0.6c1.7,0,3,0.4,4.1,1.3c1,0.9,1.6,2,1.7,3.5h-2c-0.1-0.9-0.4-1.7-1.1-2.2c-0.7-0.6-1.6-0.8-2.7-0.8
			c-1,0-1.8,0.2-2.5,0.7s-0.9,1.1-0.9,1.8c0,0.6,0.2,1.1,0.6,1.5s0.8,0.7,1.4,0.9c0.6,0.2,1.3,0.5,2.2,0.7c1.1,0.3,2,0.6,2.7,0.9
			c0.7,0.3,1.2,0.7,1.7,1.3c0.5,0.6,0.7,1.3,0.7,2.2c0,0.8-0.2,1.6-0.7,2.3c-0.5,0.7-1.1,1.2-1.9,1.6c-0.8,0.4-1.8,0.6-2.8,0.6
			C246.4,104.6,245,104.2,243.8,103.4z"/>
		<path id="XMLID_362_" class="st0" d="M257.3,85.3c-0.3-0.3-0.4-0.6-0.4-1.1c0-0.4,0.1-0.8,0.4-1c0.3-0.3,0.6-0.4,1-0.4
			c0.4,0,0.7,0.1,1,0.4c0.3,0.3,0.4,0.6,0.4,1c0,0.4-0.1,0.8-0.4,1.1c-0.3,0.3-0.6,0.4-1,0.4C257.9,85.8,257.6,85.6,257.3,85.3z
			 M259.3,88.7v15.7h-2V88.7H259.3z"/>
		<path id="XMLID_365_" class="st0" d="M266.3,90.4v9.7c0,1,0.2,1.6,0.5,2c0.4,0.4,1,0.5,1.9,0.5h1.8v1.7h-2.2c-1.4,0-2.5-0.3-3.2-1
			c-0.7-0.7-1-1.7-1-3.3v-9.7h-2.2v-1.7h2.2v-3.9h2v3.9h4.3v1.7H266.3z"/>
		<path id="XMLID_367_" class="st0" d="M273.8,92.3c0.6-1.2,1.5-2.2,2.7-2.8c1.1-0.7,2.4-1,3.9-1c1.5,0,2.8,0.3,3.9,1
			c1.1,0.7,1.9,1.6,2.3,2.6v-3.4h2v15.7h-2v-3.5c-0.5,1.1-1.3,2-2.4,2.7c-1.1,0.7-2.4,1-3.9,1c-1.4,0-2.7-0.3-3.8-1
			c-1.1-0.7-2-1.6-2.7-2.8c-0.6-1.2-1-2.6-1-4.3C272.9,94.9,273.2,93.5,273.8,92.3z M285.8,93.2c-0.5-1-1.2-1.7-2.1-2.2
			c-0.9-0.5-1.9-0.8-2.9-0.8c-1.1,0-2.1,0.2-3,0.7c-0.9,0.5-1.6,1.2-2.1,2.2c-0.5,0.9-0.8,2.1-0.8,3.4c0,1.3,0.3,2.4,0.8,3.4
			c0.5,1,1.2,1.7,2.1,2.2c0.9,0.5,1.9,0.8,3,0.8c1.1,0,2.1-0.3,2.9-0.8c0.9-0.5,1.6-1.3,2.1-2.2c0.5-1,0.8-2.1,0.8-3.3
			C286.6,95.3,286.3,94.2,285.8,93.2z M283.9,86v1.6l-5.9-3.4v-1.8L283.9,86z"/>
		<path id="XMLID_371_" class="st0" d="M300.8,92.3c0.7-1.2,1.5-2.2,2.7-2.8c1.1-0.7,2.4-1,3.9-1c1.4,0,2.6,0.3,3.7,1
			c1.1,0.7,1.9,1.5,2.4,2.6v-9h2v21.3h-2v-3.5c-0.5,1.1-1.3,2-2.4,2.7c-1.1,0.7-2.4,1-3.9,1c-1.4,0-2.7-0.3-3.9-1
			c-1.1-0.7-2-1.6-2.7-2.8c-0.6-1.2-1-2.6-1-4.3C299.8,94.9,300.1,93.5,300.8,92.3z M312.7,93.2c-0.5-1-1.2-1.7-2.1-2.2
			c-0.9-0.5-1.9-0.8-2.9-0.8c-1.1,0-2.1,0.2-3,0.7c-0.9,0.5-1.6,1.2-2.1,2.2c-0.5,0.9-0.8,2.1-0.8,3.4c0,1.3,0.3,2.4,0.8,3.4
			c0.5,1,1.2,1.7,2.1,2.2c0.9,0.5,1.9,0.8,3,0.8c1.1,0,2.1-0.3,2.9-0.8c0.9-0.5,1.6-1.3,2.1-2.2c0.5-1,0.8-2.1,0.8-3.3
			C313.5,95.3,313.3,94.2,312.7,93.2z"/>
		<path id="XMLID_374_" class="st0" d="M319.9,85.3c-0.3-0.3-0.4-0.6-0.4-1.1c0-0.4,0.1-0.8,0.4-1c0.3-0.3,0.6-0.4,1-0.4
			c0.4,0,0.7,0.1,1,0.4c0.3,0.3,0.4,0.6,0.4,1c0,0.4-0.1,0.8-0.4,1.1c-0.3,0.3-0.6,0.4-1,0.4C320.6,85.8,320.2,85.6,319.9,85.3z
			 M322,88.7v15.7h-2V88.7H322z"/>
		<path id="XMLID_377_" class="st0" d="M345.2,94.3c-1.1,1.1-2.8,1.6-5.1,1.6h-4.1v8.6h-2V84.3h6.1c2.2,0,3.9,0.5,5.1,1.6
			c1.1,1.1,1.7,2.5,1.7,4.2C346.9,91.8,346.4,93.2,345.2,94.3z M344.9,90.1c0-1.3-0.4-2.4-1.1-3c-0.7-0.7-1.9-1-3.6-1h-4.1v8.1h4.1
			C343.3,94.1,344.9,92.8,344.9,90.1z"/>
		<path id="XMLID_380_" class="st0" d="M350.1,85.3c-0.3-0.3-0.4-0.6-0.4-1.1c0-0.4,0.1-0.8,0.4-1c0.3-0.3,0.6-0.4,1-0.4
			c0.4,0,0.7,0.1,1,0.4c0.3,0.3,0.4,0.6,0.4,1c0,0.4-0.1,0.8-0.4,1.1c-0.3,0.3-0.6,0.4-1,0.4C350.7,85.8,350.4,85.6,350.1,85.3z
			 M352.1,88.7v15.7h-2V88.7H352.1z"/>
		<path id="XMLID_383_" class="st0" d="M357.5,103.4c-1.1-0.8-1.8-2-1.9-3.4h2.1c0.1,0.9,0.5,1.6,1.3,2.1c0.7,0.5,1.7,0.8,3,0.8
			c1.1,0,1.9-0.3,2.6-0.8c0.6-0.5,0.9-1.2,0.9-1.9c0-0.5-0.2-1-0.5-1.3c-0.3-0.3-0.8-0.6-1.3-0.8c-0.5-0.2-1.2-0.4-2.1-0.6
			c-1.2-0.3-2.1-0.6-2.8-0.9c-0.7-0.3-1.3-0.8-1.9-1.4c-0.5-0.6-0.8-1.4-0.8-2.4c0-0.8,0.2-1.5,0.7-2.1c0.5-0.7,1.1-1.2,2-1.6
			c0.8-0.4,1.8-0.6,2.9-0.6c1.7,0,3,0.4,4.1,1.3c1,0.9,1.6,2,1.7,3.5h-2c-0.1-0.9-0.4-1.7-1.1-2.2c-0.7-0.6-1.6-0.8-2.7-0.8
			c-1,0-1.8,0.2-2.5,0.7S358,92,358,92.7c0,0.6,0.2,1.1,0.6,1.5s0.8,0.7,1.4,0.9c0.6,0.2,1.3,0.5,2.2,0.7c1.1,0.3,2,0.6,2.7,0.9
			c0.7,0.3,1.2,0.7,1.7,1.3c0.5,0.6,0.7,1.3,0.7,2.2c0,0.8-0.2,1.6-0.7,2.3c-0.5,0.7-1.1,1.2-1.9,1.6c-0.8,0.4-1.8,0.6-2.8,0.6
			C360.1,104.6,358.7,104.2,357.5,103.4z"/>
		<path id="XMLID_385_" class="st0" d="M371.1,92.3c0.6-1.2,1.5-2.2,2.7-2.8c1.1-0.7,2.4-1,3.9-1c1.5,0,2.8,0.3,3.9,1
			c1.1,0.7,1.9,1.6,2.3,2.6v-3.4h2v15.7h-2v-3.5c-0.5,1.1-1.3,2-2.4,2.7c-1.1,0.7-2.4,1-3.9,1c-1.4,0-2.7-0.3-3.8-1
			c-1.1-0.7-2-1.6-2.7-2.8c-0.6-1.2-1-2.6-1-4.3C370.1,94.9,370.4,93.5,371.1,92.3z M383,93.2c-0.5-1-1.2-1.7-2.1-2.2
			c-0.9-0.5-1.9-0.8-2.9-0.8c-1.1,0-2.1,0.2-3,0.7c-0.9,0.5-1.6,1.2-2.1,2.2c-0.5,0.9-0.8,2.1-0.8,3.4c0,1.3,0.3,2.4,0.8,3.4
			c0.5,1,1.2,1.7,2.1,2.2c0.9,0.5,1.9,0.8,3,0.8c1.1,0,2.1-0.3,2.9-0.8c0.9-0.5,1.6-1.3,2.1-2.2c0.5-1,0.8-2.1,0.8-3.3
			C383.8,95.3,383.6,94.2,383,93.2z"/>
	</g>
</g>
</svg>
