<?xml version="1.0" encoding="utf-8"?>
<!-- Generator: Adobe Illustrator 26.3.1, SVG Export Plug-In . SVG Version: 6.00 Build 0)  -->
<svg version="1.1" id="Livello_1" xmlns="http://www.w3.org/2000/svg" xmlns:xlink="http://www.w3.org/1999/xlink" x="0px" y="0px"
	 viewBox="0 0 391.56 108.97" style="enable-background:new 0 0 391.56 108.97;" xml:space="preserve">
<style type="text/css">
	.st0{fill:#06467C;}
</style>
<g id="XMLID_1019_">
	<path id="XMLID_1037_" class="st0" d="M126.95,22.01C123.91,8.03,118.9,0,118.9,0L70.03,29.14c0.37,0.8,0.68,1.63,0.92,2.49
		L126.95,22.01z"/>
	<path id="XMLID_1036_" class="st0" d="M71.56,37.13l55.77,10.29c2.11-8.59,0.23-21.41,0.23-21.41L71.5,34.49
		c0.06,0.57,0.09,1.15,0.09,1.73C71.59,36.53,71.58,36.83,71.56,37.13z"/>
	<path id="XMLID_1035_" class="st0" d="M119.01,71.43c5.04-7.52,7.45-19.63,7.45-19.63L71.19,39.84c-0.24,1.09-0.58,2.14-1.02,3.14
		L119.01,71.43z"/>
	<path id="XMLID_1034_" class="st0" d="M102.97,91.14c6.79-4.98,13.83-16.12,13.83-16.12L68.96,45.25c-0.6,0.94-1.29,1.82-2.06,2.62
		L102.97,91.14z"/>
	<path id="XMLID_1033_" class="st0" d="M81.16,104.18C91.22,100.6,99.91,93.6,99.91,93.6L65.03,49.54c-0.91,0.7-1.88,1.31-2.92,1.81
		L81.16,104.18z"/>
	<path id="XMLID_1032_" class="st0" d="M56.2,108.97c15.35-0.74,20.37-3.07,20.37-3.07l-16.9-53.59c-1.03,0.31-2.09,0.53-3.19,0.64
		L56.2,108.97z"/>
	<path id="XMLID_1031_" class="st0" d="M31.78,103.14c11.18,5.8,20.22,5.83,20.22,5.83L53.78,53c-1.13-0.07-2.23-0.24-3.29-0.52
		L31.78,103.14z"/>
	<path id="XMLID_1030_" class="st0" d="M12.78,88.01c6.03,8.13,15.41,13.17,15.41,13.17L47.96,51.6c-1.03-0.46-2.01-1.01-2.92-1.66
		L12.78,88.01z"/>
	<path id="XMLID_1029_" class="st0" d="M40.76,45.52L2.15,67.72c3.08,10.54,7.99,16.76,7.99,16.76l32.81-36.3
		C42.14,47.37,41.4,46.48,40.76,45.52z"/>
	<path id="XMLID_1028_" class="st0" d="M0.22,46.7C-0.6,56.9,1.14,63.45,1.14,63.45l38.4-20.11c-0.47-1.01-0.85-2.08-1.12-3.19
		L0.22,46.7z"/>
	<path id="XMLID_1027_" class="st0" d="M38.07,34.25L6.04,28.41C0.56,38.36,0.7,42.7,0.7,42.7l37.31-5.15
		c-0.03-0.44-0.06-0.88-0.06-1.33C37.96,35.55,38,34.9,38.07,34.25z"/>
	<path id="XMLID_1026_" class="st0" d="M16.45,14.97c-6.98,6.55-8.59,10.28-8.59,10.28l30.74,6.37c0.31-1.09,0.72-2.13,1.24-3.12
		L16.45,14.97z"/>
	<path id="XMLID_1025_" class="st0" d="M42.92,24.3L29.37,6.53c-5.98,2.38-9.98,5.56-9.98,5.56l21.47,14.69
		C41.46,25.89,42.15,25.05,42.92,24.3z"/>
	<path id="XMLID_1024_" class="st0" d="M41.61,2.6c-5.31,0.83-9.68,2.72-9.68,2.72l13.53,16.9c0.84-0.56,1.74-1.05,2.67-1.45
		L41.61,2.6z"/>
	<path id="XMLID_1023_" class="st0" d="M53.77,1.96c-6.29-0.48-8.96,0.15-8.96,0.15l5.93,17.79c0.98-0.24,2-0.4,3.04-0.46V1.96z"/>
	<path id="XMLID_1022_" class="st0" d="M65.25,4.12c-3.43-1.2-8.17-1.93-8.17-1.93l-0.75,17.28c1.06,0.1,2.09,0.3,3.09,0.58
		L65.25,4.12z"/>
	<path id="XMLID_1021_" class="st0" d="M68.55,26.58l17.34-10.03c-3.55-3.81-7.25-6.02-7.25-6.02L66.09,23.79
		C67.01,24.62,67.83,25.56,68.55,26.58z"/>
	<path id="XMLID_1020_" class="st0" d="M76,8.87c-2.8-1.79-7.62-3.67-7.62-3.67l-6.63,15.72c1.09,0.5,2.12,1.1,3.06,1.81L76,8.87z"
		/>
</g>
<g id="XMLID_722_">
	<g>
		<path id="XMLID_00000154385175135108714650000012714957650439328146_" class="st0" d="M174.14,27.51c1.6,0.81,2.84,1.98,3.71,3.51
			c0.87,1.52,1.31,3.3,1.31,5.33c0,2.03-0.44,3.8-1.31,5.29c-0.87,1.5-2.11,2.64-3.71,3.44c-1.6,0.8-3.47,1.19-5.59,1.19h-6.53
			V26.29h6.53C170.68,26.29,172.54,26.69,174.14,27.51z M173.93,41.7c1.25-1.26,1.87-3.05,1.87-5.35c0-2.32-0.62-4.13-1.87-5.43
			s-3.04-1.95-5.38-1.95h-3.25v14.63h3.25C170.89,43.59,172.68,42.96,173.93,41.7z"/>
		<path id="XMLID_00000154399718254208522120000013920145597207296681_" class="st0" d="M183.1,27.72c-0.4-0.4-0.6-0.9-0.6-1.5
			c0-0.59,0.2-1.09,0.6-1.49c0.4-0.4,0.9-0.6,1.5-0.6c0.57,0,1.06,0.2,1.47,0.6c0.4,0.4,0.6,0.9,0.6,1.49c0,0.59-0.2,1.09-0.6,1.5
			c-0.4,0.4-0.89,0.6-1.47,0.6C184,28.33,183.5,28.13,183.1,27.72z M186.2,30.43v15.84h-3.28V30.43H186.2z"/>
		<path id="XMLID_00000013158859953325600050000014296095679274030737_" class="st0" d="M196.58,30.92c0.96-0.5,2.04-0.75,3.25-0.75
			c1.38,0,2.64,0.34,3.78,1.02c1.14,0.68,2.04,1.63,2.69,2.86c0.65,1.23,0.98,2.64,0.98,4.23c0,1.59-0.33,3.01-0.98,4.27
			s-1.55,2.23-2.69,2.93c-1.14,0.7-2.4,1.05-3.78,1.05c-1.21,0-2.28-0.24-3.22-0.73c-0.94-0.49-1.71-1.1-2.3-1.83v9.83h-3.28V30.43
			h3.28v2.33C194.86,32.03,195.62,31.41,196.58,30.92z M203.27,35.44c-0.45-0.8-1.04-1.4-1.78-1.81c-0.74-0.41-1.53-0.62-2.37-0.62
			c-0.82,0-1.6,0.21-2.34,0.63c-0.74,0.42-1.33,1.03-1.78,1.84c-0.45,0.81-0.68,1.75-0.68,2.85c0,1.09,0.22,2.05,0.68,2.86
			c0.45,0.81,1.04,1.43,1.78,1.85c0.74,0.42,1.52,0.63,2.34,0.63c0.84,0,1.63-0.22,2.37-0.65c0.74-0.43,1.33-1.06,1.78-1.88
			c0.45-0.82,0.68-1.78,0.68-2.88C203.94,37.18,203.71,36.24,203.27,35.44z"/>
		<path id="XMLID_00000070106799300699963410000000628844450471323781_" class="st0" d="M210.94,34.05c0.66-1.23,1.56-2.18,2.7-2.86
			c1.14-0.68,2.4-1.02,3.78-1.02c1.25,0,2.33,0.24,3.26,0.73c0.93,0.49,1.67,1.1,2.23,1.82v-2.3h3.31v15.84h-3.31v-2.36
			c-0.56,0.75-1.31,1.37-2.27,1.87c-0.96,0.5-2.05,0.75-3.28,0.75c-1.36,0-2.61-0.35-3.74-1.05c-1.13-0.7-2.03-1.68-2.69-2.93
			c-0.66-1.26-0.99-2.68-0.99-4.27C209.95,36.68,210.28,35.28,210.94,34.05z M222.24,35.49c-0.45-0.81-1.04-1.42-1.77-1.84
			c-0.73-0.42-1.51-0.63-2.36-0.63s-1.63,0.21-2.36,0.62c-0.73,0.41-1.32,1.02-1.77,1.81c-0.45,0.79-0.68,1.74-0.68,2.83
			c0,1.09,0.23,2.05,0.68,2.88c0.45,0.82,1.04,1.45,1.78,1.88c0.74,0.43,1.52,0.65,2.34,0.65c0.84,0,1.63-0.21,2.36-0.63
			c0.73-0.42,1.32-1.04,1.77-1.85c0.45-0.81,0.68-1.77,0.68-2.86C222.92,37.24,222.69,36.29,222.24,35.49z"/>
		<path id="XMLID_00000023968006079222677270000001155624850536309657_" class="st0" d="M236.24,30.84
			c0.79-0.45,1.74-0.68,2.83-0.68v3.39h-0.83c-1.28,0-2.26,0.33-2.92,0.98c-0.66,0.65-0.99,1.78-0.99,3.39v8.34h-3.28V30.43h3.28
			v2.3C234.81,31.92,235.44,31.29,236.24,30.84z"/>
		<path id="XMLID_00000091715595914779756790000017621634387539854778_" class="st0" d="M246.43,33.1v8.77
			c0,0.59,0.14,1.02,0.42,1.28c0.28,0.26,0.75,0.39,1.42,0.39h2.01v2.73h-2.59c-1.48,0-2.61-0.35-3.39-1.04
			c-0.79-0.69-1.18-1.81-1.18-3.36V33.1h-1.87v-2.67h1.87v-3.94h3.31v3.94h3.85v2.67H246.43z"/>
		<path id="XMLID_00000109718789660620183680000005700946611562150845_" class="st0" d="M253.99,27.72c-0.4-0.4-0.6-0.9-0.6-1.5
			c0-0.59,0.2-1.09,0.6-1.49c0.4-0.4,0.9-0.6,1.5-0.6c0.57,0,1.06,0.2,1.47,0.6c0.4,0.4,0.6,0.9,0.6,1.49c0,0.59-0.2,1.09-0.6,1.5
			c-0.4,0.4-0.89,0.6-1.47,0.6C254.89,28.33,254.39,28.13,253.99,27.72z M257.1,30.43v15.84h-3.28V30.43H257.1z"/>
		<path id="XMLID_00000145023040276294943200000015115084854130003334_" class="st0" d="M284.45,30.94c0.99,0.52,1.76,1.28,2.33,2.3
			c0.56,1.02,0.85,2.24,0.85,3.68v9.34h-3.25v-8.85c0-1.42-0.35-2.51-1.06-3.26c-0.71-0.76-1.68-1.14-2.9-1.14
			c-1.23,0-2.2,0.38-2.92,1.14c-0.72,0.76-1.08,1.84-1.08,3.26v8.85h-3.25v-8.85c0-1.42-0.35-2.51-1.06-3.26
			c-0.71-0.76-1.68-1.14-2.9-1.14c-1.23,0-2.2,0.38-2.92,1.14c-0.72,0.76-1.08,1.84-1.08,3.26v8.85h-3.28V30.43h3.28v1.81
			c0.54-0.65,1.22-1.16,2.04-1.52c0.82-0.36,1.71-0.55,2.65-0.55c1.26,0,2.4,0.27,3.39,0.81c1,0.54,1.76,1.31,2.3,2.33
			c0.48-0.96,1.23-1.72,2.24-2.29c1.02-0.57,2.11-0.85,3.28-0.85C282.35,30.17,283.47,30.43,284.45,30.94z"/>
		<path id="XMLID_00000028288461631871297900000002180537254841624759_" class="st0" d="M306.72,39.57h-12.1
			c0.09,1.26,0.56,2.28,1.41,3.05c0.84,0.77,1.88,1.15,3.1,1.15c1.76,0,3.01-0.74,3.74-2.21h3.54c-0.48,1.46-1.35,2.65-2.6,3.58
			c-1.26,0.93-2.81,1.39-4.67,1.39c-1.51,0-2.87-0.34-4.07-1.02c-1.2-0.68-2.14-1.64-2.82-2.87c-0.68-1.24-1.02-2.67-1.02-4.3
			c0-1.63,0.33-3.06,0.99-4.3c0.66-1.24,1.59-2.19,2.79-2.86c1.2-0.67,2.57-1.01,4.13-1.01c1.5,0,2.83,0.33,4,0.98
			c1.17,0.65,2.08,1.57,2.73,2.75c0.65,1.18,0.98,2.53,0.98,4.07C306.83,38.55,306.79,39.09,306.72,39.57z M303.41,36.92
			c-0.02-1.21-0.45-2.18-1.29-2.9c-0.84-0.73-1.89-1.09-3.13-1.09c-1.13,0-2.1,0.36-2.9,1.08c-0.81,0.72-1.28,1.69-1.44,2.92H303.41
			z"/>
		<path id="XMLID_00000133521289263966049100000014095376295483400833_" class="st0" d="M321.91,30.94c0.99,0.52,1.76,1.28,2.31,2.3
			c0.56,1.02,0.83,2.24,0.83,3.68v9.34h-3.25v-8.85c0-1.42-0.35-2.51-1.06-3.26c-0.71-0.76-1.68-1.14-2.9-1.14
			c-1.23,0-2.2,0.38-2.92,1.14c-0.72,0.76-1.08,1.84-1.08,3.26v8.85h-3.28V30.43h3.28v1.81c0.54-0.65,1.22-1.16,2.06-1.52
			c0.83-0.36,1.72-0.55,2.66-0.55C319.81,30.17,320.93,30.43,321.91,30.94z"/>
		<path id="XMLID_00000046312655799618682960000009663963876846254739_" class="st0" d="M333.57,33.1v8.77
			c0,0.59,0.14,1.02,0.42,1.28c0.28,0.26,0.75,0.39,1.42,0.39h2.01v2.73h-2.59c-1.48,0-2.61-0.35-3.39-1.04
			c-0.79-0.69-1.18-1.81-1.18-3.36V33.1h-1.87v-2.67h1.87v-3.94h3.31v3.94h3.85v2.67H333.57z"/>
		<path id="XMLID_00000106122993895227741420000002501165388386254493_" class="st0" d="M343.78,45.51
			c-1.21-0.68-2.16-1.64-2.85-2.87c-0.69-1.24-1.04-2.67-1.04-4.3c0-1.61,0.35-3.04,1.06-4.28c0.71-1.25,1.68-2.2,2.9-2.87
			c1.23-0.67,2.6-1.01,4.11-1.01c1.51,0,2.88,0.34,4.11,1.01c1.23,0.67,2.19,1.63,2.9,2.87c0.71,1.25,1.06,2.67,1.06,4.28
			s-0.36,3.04-1.09,4.28c-0.73,1.25-1.72,2.21-2.97,2.89c-1.26,0.68-2.64,1.02-4.16,1.02C346.33,46.53,344.98,46.19,343.78,45.51z
			 M350.2,43.08c0.74-0.4,1.34-1.01,1.8-1.81c0.46-0.8,0.69-1.78,0.69-2.93c0-1.15-0.22-2.12-0.66-2.92
			c-0.44-0.79-1.03-1.39-1.75-1.8c-0.73-0.4-1.51-0.6-2.36-0.6c-0.84,0-1.63,0.2-2.34,0.6c-0.72,0.4-1.29,1-1.71,1.8
			c-0.42,0.79-0.63,1.77-0.63,2.92c0,1.71,0.44,3.02,1.31,3.95c0.87,0.93,1.97,1.39,3.29,1.39
			C348.67,43.68,349.46,43.48,350.2,43.08z"/>
		<path id="XMLID_00000178194476732126885380000014363893441610279351_" class="st0" d="M367.71,34.05c0.66-1.23,1.56-2.18,2.7-2.86
			c1.14-0.68,2.41-1.02,3.81-1.02c1.03,0,2.06,0.23,3.06,0.68c1.01,0.45,1.81,1.05,2.4,1.8v-7.65h3.31v21.27h-3.31v-2.39
			c-0.54,0.77-1.28,1.4-2.23,1.9c-0.95,0.5-2.04,0.75-3.26,0.75c-1.38,0-2.64-0.35-3.78-1.05c-1.14-0.7-2.04-1.68-2.7-2.93
			c-0.66-1.26-0.99-2.68-0.99-4.27C366.72,36.68,367.05,35.28,367.71,34.05z M379.01,35.49c-0.45-0.81-1.04-1.42-1.77-1.84
			c-0.73-0.42-1.51-0.63-2.36-0.63s-1.63,0.21-2.36,0.62c-0.73,0.41-1.32,1.02-1.77,1.81c-0.45,0.79-0.68,1.74-0.68,2.83
			c0,1.09,0.23,2.05,0.68,2.88c0.45,0.82,1.04,1.45,1.78,1.88c0.74,0.43,1.52,0.65,2.34,0.65c0.84,0,1.63-0.21,2.36-0.63
			c0.73-0.42,1.32-1.04,1.77-1.85c0.45-0.81,0.68-1.77,0.68-2.86C379.68,37.24,379.46,36.29,379.01,35.49z"/>
		<path id="XMLID_00000038391566016150058480000004331476291639944126_" class="st0" d="M387.99,27.72c-0.4-0.4-0.6-0.9-0.6-1.5
			c0-0.59,0.2-1.09,0.6-1.49s0.9-0.6,1.5-0.6c0.57,0,1.06,0.2,1.47,0.6c0.4,0.4,0.6,0.9,0.6,1.49c0,0.59-0.2,1.09-0.6,1.5
			c-0.4,0.4-0.89,0.6-1.47,0.6C388.89,28.33,388.39,28.13,387.99,27.72z M391.1,30.43v15.84h-3.28V30.43H391.1z"/>
		<path id="XMLID_00000003098395977298800580000002248144609232913843_" class="st0" d="M183.07,64.61V84.6h-3.28V70.91l-6.1,13.68
			h-2.27l-6.12-13.68V84.6h-3.28V64.61h3.54l7.02,15.67l6.98-15.67H183.07z"/>
		<path id="XMLID_00000052101222313212788510000003901676213168373658_" class="st0" d="M187.8,72.38c0.66-1.23,1.56-2.18,2.7-2.86
			s2.4-1.02,3.78-1.02c1.25,0,2.33,0.24,3.26,0.73c0.93,0.49,1.67,1.1,2.23,1.82v-2.3h3.31V84.6h-3.31v-2.36
			c-0.56,0.75-1.31,1.37-2.27,1.87c-0.96,0.5-2.05,0.75-3.28,0.75c-1.36,0-2.61-0.35-3.74-1.05s-2.03-1.68-2.69-2.93
			c-0.66-1.26-0.99-2.68-0.99-4.27C186.81,75.01,187.14,73.6,187.8,72.38z M199.1,73.81c-0.45-0.81-1.04-1.42-1.77-1.84
			c-0.73-0.42-1.51-0.63-2.36-0.63s-1.63,0.21-2.36,0.62c-0.73,0.41-1.32,1.02-1.77,1.81c-0.45,0.79-0.68,1.74-0.68,2.83
			c0,1.09,0.23,2.05,0.68,2.88c0.45,0.82,1.04,1.45,1.78,1.88c0.74,0.43,1.52,0.65,2.34,0.65c0.84,0,1.63-0.21,2.36-0.63
			c0.73-0.42,1.32-1.04,1.77-1.85c0.45-0.81,0.68-1.77,0.68-2.86C199.77,75.57,199.55,74.62,199.1,73.81z"/>
		<path id="XMLID_00000039097735885875043080000012190234250323692176_" class="st0" d="M211.73,71.43v8.77
			c0,0.59,0.14,1.02,0.42,1.28s0.75,0.39,1.42,0.39h2.01v2.73H213c-1.48,0-2.61-0.35-3.39-1.04s-1.18-1.81-1.18-3.36v-8.77h-1.87
			v-2.67h1.87v-3.94h3.31v3.94h3.85v2.67H211.73z"/>
		<path id="XMLID_00000099660509932560563810000014041218110279364001_" class="st0" d="M233.52,77.9h-12.1
			c0.09,1.26,0.56,2.28,1.41,3.05c0.84,0.77,1.88,1.15,3.1,1.15c1.76,0,3.01-0.74,3.74-2.21h3.54c-0.48,1.46-1.35,2.65-2.6,3.58
			c-1.26,0.93-2.81,1.39-4.67,1.39c-1.51,0-2.87-0.34-4.07-1.02s-2.14-1.64-2.82-2.87c-0.68-1.24-1.02-2.67-1.02-4.3
			c0-1.63,0.33-3.06,0.99-4.3c0.66-1.24,1.59-2.19,2.79-2.86c1.2-0.67,2.57-1.01,4.13-1.01c1.5,0,2.83,0.33,4,0.98
			c1.17,0.65,2.08,1.57,2.73,2.75c0.65,1.18,0.98,2.53,0.98,4.07C233.64,76.88,233.6,77.42,233.52,77.9z M230.22,75.25
			c-0.02-1.21-0.45-2.18-1.29-2.9c-0.84-0.73-1.89-1.09-3.13-1.09c-1.13,0-2.1,0.36-2.9,1.08s-1.28,1.69-1.44,2.92H230.22z"/>
		<path id="XMLID_00000039104236888865481300000018341222692584899255_" class="st0" d="M259.9,69.27c0.99,0.52,1.76,1.28,2.33,2.3
			c0.56,1.02,0.85,2.24,0.85,3.68v9.34h-3.25v-8.85c0-1.42-0.35-2.51-1.06-3.26c-0.71-0.76-1.68-1.14-2.9-1.14
			c-1.23,0-2.2,0.38-2.92,1.14c-0.72,0.76-1.08,1.84-1.08,3.26v8.85h-3.25v-8.85c0-1.42-0.35-2.51-1.06-3.26
			c-0.71-0.76-1.68-1.14-2.9-1.14c-1.23,0-2.2,0.38-2.92,1.14c-0.72,0.76-1.08,1.84-1.08,3.26v8.85h-3.28V68.75h3.28v1.81
			c0.54-0.65,1.22-1.16,2.04-1.52c0.82-0.36,1.71-0.55,2.65-0.55c1.26,0,2.4,0.27,3.39,0.81c1,0.54,1.76,1.31,2.3,2.33
			c0.48-0.96,1.23-1.72,2.24-2.29c1.02-0.57,2.11-0.85,3.28-0.85C257.8,68.5,258.91,68.75,259.9,69.27z"/>
		<path id="XMLID_00000103238061980554851290000001575767005621016998_" class="st0" d="M267.66,72.38c0.66-1.23,1.56-2.18,2.7-2.86
			c1.14-0.68,2.4-1.02,3.78-1.02c1.25,0,2.33,0.24,3.26,0.73c0.93,0.49,1.67,1.1,2.23,1.82v-2.3h3.31V84.6h-3.31v-2.36
			c-0.56,0.75-1.31,1.37-2.27,1.87c-0.96,0.5-2.05,0.75-3.28,0.75c-1.36,0-2.61-0.35-3.74-1.05c-1.13-0.7-2.03-1.68-2.69-2.93
			c-0.66-1.26-0.99-2.68-0.99-4.27C266.67,75.01,267,73.6,267.66,72.38z M278.96,73.81c-0.45-0.81-1.04-1.42-1.77-1.84
			c-0.73-0.42-1.51-0.63-2.36-0.63c-0.84,0-1.63,0.21-2.36,0.62c-0.73,0.41-1.32,1.02-1.77,1.81c-0.45,0.79-0.68,1.74-0.68,2.83
			c0,1.09,0.23,2.05,0.68,2.88c0.45,0.82,1.04,1.45,1.78,1.88c0.74,0.43,1.52,0.65,2.34,0.65c0.84,0,1.63-0.21,2.36-0.63
			c0.73-0.42,1.32-1.04,1.77-1.85c0.45-0.81,0.68-1.77,0.68-2.86C279.64,75.57,279.41,74.62,278.96,73.81z"/>
		<path id="XMLID_00000149357966633285910690000000949508476566009266_" class="st0" d="M291.6,71.43v8.77
			c0,0.59,0.14,1.02,0.42,1.28s0.75,0.39,1.42,0.39h2.01v2.73h-2.59c-1.48,0-2.61-0.35-3.39-1.04c-0.79-0.69-1.18-1.81-1.18-3.36
			v-8.77h-1.87v-2.67h1.87v-3.94h3.31v3.94h3.85v2.67H291.6z"/>
		<path id="XMLID_00000124882693385299729530000007458508798082150831_" class="st0" d="M299.16,66.05c-0.4-0.4-0.6-0.9-0.6-1.5
			c0-0.59,0.2-1.09,0.6-1.49c0.4-0.4,0.9-0.6,1.5-0.6c0.57,0,1.06,0.2,1.47,0.6c0.4,0.4,0.6,0.9,0.6,1.49c0,0.59-0.2,1.09-0.6,1.5
			c-0.4,0.4-0.89,0.6-1.47,0.6C300.06,66.66,299.56,66.46,299.16,66.05z M302.26,68.75V84.6h-3.28V68.75H302.26z"/>
		<path id="XMLID_00000148631833526877817760000001771512577597051546_" class="st0" d="M306.99,72.36
			c0.66-1.24,1.58-2.19,2.75-2.86c1.17-0.67,2.51-1.01,4.03-1.01c1.92,0,3.5,0.46,4.76,1.37c1.25,0.91,2.1,2.21,2.54,3.9h-3.54
			c-0.29-0.79-0.75-1.4-1.38-1.84c-0.63-0.44-1.43-0.66-2.39-0.66c-1.34,0-2.41,0.47-3.21,1.42c-0.8,0.95-1.19,2.28-1.19,3.98
			c0,1.71,0.4,3.04,1.19,4c0.79,0.96,1.86,1.44,3.21,1.44c1.9,0,3.15-0.83,3.77-2.5h3.54c-0.46,1.61-1.32,2.89-2.59,3.84
			c-1.26,0.95-2.84,1.42-4.72,1.42c-1.51,0-2.86-0.34-4.03-1.02c-1.17-0.68-2.08-1.64-2.75-2.87c-0.66-1.24-0.99-2.67-0.99-4.3
			C306,75.03,306.33,73.6,306.99,72.36z"/>
		<path id="XMLID_00000088092335897394240660000015825469844219860894_" class="st0" d="M324.76,72.38c0.66-1.23,1.56-2.18,2.7-2.86
			c1.14-0.68,2.4-1.02,3.78-1.02c1.25,0,2.33,0.24,3.26,0.73c0.93,0.49,1.67,1.1,2.23,1.82v-2.3h3.31V84.6h-3.31v-2.36
			c-0.56,0.75-1.31,1.37-2.27,1.87c-0.96,0.5-2.05,0.75-3.28,0.75c-1.36,0-2.61-0.35-3.74-1.05c-1.13-0.7-2.03-1.68-2.69-2.93
			c-0.66-1.26-0.99-2.68-0.99-4.27C323.77,75.01,324.1,73.6,324.76,72.38z M336.06,73.81c-0.45-0.81-1.04-1.42-1.77-1.84
			c-0.73-0.42-1.51-0.63-2.36-0.63s-1.63,0.21-2.36,0.62c-0.73,0.41-1.32,1.02-1.77,1.81c-0.45,0.79-0.68,1.74-0.68,2.83
			c0,1.09,0.23,2.05,0.68,2.88c0.45,0.82,1.04,1.45,1.78,1.88c0.74,0.43,1.52,0.65,2.34,0.65c0.84,0,1.63-0.21,2.36-0.63
			c0.73-0.42,1.32-1.04,1.77-1.85c0.45-0.81,0.68-1.77,0.68-2.86C336.73,75.57,336.51,74.62,336.06,73.81z"/>
	</g>
</g>
</svg>
