<?xml version="1.0" encoding="utf-8"?>
<!-- Generator: Adobe Illustrator 26.3.1, SVG Export Plug-In . SVG Version: 6.00 Build 0)  -->
<svg version="1.1" id="Livello_1" xmlns="http://www.w3.org/2000/svg" xmlns:xlink="http://www.w3.org/1999/xlink" x="0px" y="0px"
	 viewBox="0 0 349.88 171.07" style="enable-background:new 0 0 349.88 171.07;" xml:space="preserve">
<style type="text/css">
	.st0{fill:#06467C;}
</style>
<g id="XMLID_4_">
	<path id="XMLID_28_" class="st0" d="M233.25,19.9C230.51,7.26,225.98,0,225.98,0L181.8,26.34c0.34,0.72,0.61,1.47,0.83,2.25
		L233.25,19.9z"/>
	<path id="XMLID_27_" class="st0" d="M183.19,33.56l50.42,9.3c1.91-7.77,0.21-19.35,0.21-19.35l-50.68,7.66
		c0.05,0.51,0.08,1.04,0.08,1.57C183.21,33.02,183.2,33.29,183.19,33.56z"/>
	<path id="XMLID_26_" class="st0" d="M226.07,64.57c4.55-6.8,6.74-17.74,6.74-17.74l-49.96-10.81c-0.22,0.99-0.53,1.93-0.93,2.84
		L226.07,64.57z"/>
	<path id="XMLID_25_" class="st0" d="M211.58,82.39c6.14-4.5,12.5-14.57,12.5-14.57L180.83,40.9c-0.54,0.85-1.17,1.65-1.87,2.37
		L211.58,82.39z"/>
	<path id="XMLID_24_" class="st0" d="M191.86,94.17c9.09-3.24,16.95-9.56,16.95-9.56l-31.53-39.82c-0.82,0.63-1.7,1.18-2.64,1.64
		L191.86,94.17z"/>
	<path id="XMLID_23_" class="st0" d="M169.3,98.5c13.88-0.67,18.41-2.78,18.41-2.78l-15.28-48.44c-0.93,0.28-1.89,0.48-2.89,0.58
		L169.3,98.5z"/>
	<path id="XMLID_22_" class="st0" d="M147.22,93.24c10.1,5.25,18.28,5.27,18.28,5.27l1.61-50.59c-1.02-0.06-2.02-0.22-2.97-0.47
		L147.22,93.24z"/>
	<path id="XMLID_21_" class="st0" d="M130.05,79.56c5.45,7.35,13.93,11.9,13.93,11.9l17.88-44.82c-0.93-0.41-1.81-0.92-2.64-1.5
		L130.05,79.56z"/>
	<path id="XMLID_20_" class="st0" d="M155.34,41.15l-34.9,20.07c2.78,9.53,7.22,15.15,7.22,15.15l29.66-32.81
		C156.59,42.82,155.92,42.02,155.34,41.15z"/>
	<path id="XMLID_16_" class="st0" d="M118.69,42.21c-0.73,9.22,0.84,15.14,0.84,15.14l34.71-18.17c-0.43-0.92-0.77-1.88-1.01-2.89
		L118.69,42.21z"/>
	<path id="XMLID_15_" class="st0" d="M152.91,30.96l-28.95-5.29c-4.96,9-4.83,12.92-4.83,12.92l33.73-4.66
		c-0.03-0.4-0.05-0.79-0.05-1.2C152.81,32.14,152.85,31.55,152.91,30.96z"/>
	<path id="XMLID_11_" class="st0" d="M133.37,13.53c-6.31,5.92-7.77,9.29-7.77,9.29l27.79,5.76c0.28-0.98,0.65-1.93,1.12-2.82
		L133.37,13.53z"/>
	<path id="XMLID_10_" class="st0" d="M157.29,21.96L145.04,5.9c-5.4,2.15-9.02,5.03-9.02,5.03l19.41,13.27
		C155.98,23.4,156.6,22.65,157.29,21.96z"/>
	<path id="XMLID_9_" class="st0" d="M156.11,2.35c-4.8,0.75-8.75,2.46-8.75,2.46l12.23,15.28c0.76-0.51,1.57-0.95,2.42-1.31
		L156.11,2.35z"/>
	<path id="XMLID_8_" class="st0" d="M167.1,1.77C161.42,1.33,159,1.9,159,1.9l5.36,16.08c0.89-0.22,1.8-0.36,2.74-0.42V1.77z"/>
	<path id="XMLID_7_" class="st0" d="M177.48,3.73c-3.1-1.08-7.38-1.74-7.38-1.74l-0.68,15.62c0.96,0.09,1.89,0.27,2.79,0.53
		L177.48,3.73z"/>
	<path id="XMLID_6_" class="st0" d="M180.46,24.03l15.67-9.07c-3.21-3.44-6.55-5.44-6.55-5.44L178.24,21.5
		C179.07,22.26,179.82,23.11,180.46,24.03z"/>
	<path id="XMLID_5_" class="st0" d="M187.2,8.02c-2.53-1.62-6.88-3.32-6.88-3.32l-5.99,14.21c0.98,0.45,1.91,1,2.77,1.64L187.2,8.02
		z"/>
</g>
<g id="XMLID_71_">
	<path id="XMLID_72_" class="st0" d="M10.1,123.07c1.33,0.68,2.36,1.65,3.09,2.92c0.73,1.27,1.09,2.75,1.09,4.44
		c0,1.69-0.36,3.16-1.09,4.41s-1.76,2.2-3.09,2.86c-1.33,0.66-2.89,0.99-4.66,0.99H0v-16.65h5.44
		C7.21,122.05,8.76,122.39,10.1,123.07z M9.92,134.89c1.04-1.05,1.56-2.54,1.56-4.46c0-1.93-0.52-3.44-1.56-4.53
		c-1.04-1.09-2.53-1.63-4.48-1.63H2.73v12.19h2.71C7.39,136.47,8.88,135.94,9.92,134.89z"/>
	<path id="XMLID_75_" class="st0" d="M17.56,123.25c-0.34-0.34-0.5-0.75-0.5-1.25c0-0.5,0.17-0.91,0.5-1.25s0.75-0.5,1.25-0.5
		c0.48,0,0.89,0.17,1.22,0.5c0.34,0.34,0.5,0.75,0.5,1.25c0,0.5-0.17,0.91-0.5,1.25c-0.34,0.34-0.74,0.5-1.22,0.5
		C18.31,123.75,17.89,123.58,17.56,123.25z M20.15,125.5v13.2h-2.73v-13.2H20.15z"/>
	<path id="XMLID_78_" class="st0" d="M28.79,125.91c0.8-0.42,1.7-0.62,2.71-0.62c1.15,0,2.2,0.28,3.15,0.85
		c0.95,0.57,1.7,1.36,2.24,2.38c0.54,1.02,0.81,2.2,0.81,3.52c0,1.33-0.27,2.51-0.81,3.56c-0.54,1.05-1.29,1.86-2.24,2.44
		c-0.95,0.58-2,0.87-3.15,0.87c-1.01,0-1.9-0.2-2.68-0.61c-0.78-0.41-1.42-0.91-1.92-1.52v8.19h-2.73V125.5h2.73v1.94
		C27.37,126.83,28,126.32,28.79,125.91z M34.36,129.68c-0.38-0.66-0.87-1.17-1.49-1.51c-0.61-0.34-1.27-0.51-1.98-0.51
		c-0.69,0-1.34,0.18-1.95,0.53c-0.62,0.35-1.11,0.86-1.49,1.53c-0.38,0.67-0.56,1.46-0.56,2.37c0,0.91,0.19,1.7,0.56,2.38
		c0.37,0.68,0.87,1.19,1.49,1.54c0.61,0.35,1.26,0.53,1.95,0.53c0.7,0,1.36-0.18,1.98-0.54c0.61-0.36,1.11-0.88,1.49-1.57
		c0.38-0.69,0.56-1.48,0.56-2.4C34.93,131.13,34.74,130.34,34.36,129.68z"/>
	<path id="XMLID_81_" class="st0" d="M40.76,128.52c0.55-1.02,1.3-1.82,2.25-2.38c0.95-0.57,2-0.85,3.15-0.85
		c1.04,0,1.94,0.2,2.72,0.61c0.77,0.41,1.39,0.91,1.86,1.52v-1.92h2.75v13.2h-2.75v-1.96c-0.46,0.62-1.09,1.14-1.89,1.56
		c-0.8,0.42-1.71,0.62-2.73,0.62c-1.13,0-2.17-0.29-3.11-0.87c-0.94-0.58-1.69-1.4-2.24-2.44c-0.55-1.05-0.83-2.23-0.83-3.56
		C39.93,130.71,40.21,129.54,40.76,128.52z M50.17,129.71c-0.38-0.67-0.87-1.18-1.47-1.53c-0.61-0.35-1.26-0.53-1.96-0.53
		c-0.7,0-1.36,0.17-1.97,0.51c-0.61,0.34-1.1,0.85-1.47,1.51c-0.38,0.66-0.56,1.45-0.56,2.36c0,0.91,0.19,1.71,0.56,2.4
		c0.37,0.69,0.87,1.21,1.48,1.57c0.61,0.36,1.27,0.54,1.95,0.54c0.7,0,1.36-0.18,1.96-0.53c0.61-0.35,1.1-0.87,1.47-1.54
		c0.37-0.68,0.56-1.47,0.56-2.38C50.74,131.18,50.55,130.39,50.17,129.71z"/>
	<path id="XMLID_84_" class="st0" d="M61.84,125.85c0.66-0.37,1.45-0.56,2.36-0.56v2.83h-0.7c-1.07,0-1.88,0.27-2.43,0.81
		c-0.55,0.54-0.83,1.49-0.83,2.83v6.95h-2.73v-13.2h2.73v1.92C60.65,126.74,61.18,126.22,61.84,125.85z"/>
	<path id="XMLID_86_" class="st0" d="M70.33,127.73v7.31c0,0.5,0.12,0.85,0.35,1.07c0.23,0.22,0.63,0.32,1.19,0.32h1.68v2.28h-2.16
		c-1.23,0-2.17-0.29-2.83-0.86s-0.98-1.51-0.98-2.8v-7.31h-1.56v-2.23h1.56v-3.28h2.76v3.28h3.21v2.23H70.33z"/>
	<path id="XMLID_88_" class="st0" d="M76.63,123.25c-0.34-0.34-0.5-0.75-0.5-1.25c0-0.5,0.17-0.91,0.5-1.25s0.75-0.5,1.25-0.5
		c0.48,0,0.89,0.17,1.22,0.5c0.34,0.34,0.5,0.75,0.5,1.25c0,0.5-0.17,0.91-0.5,1.25c-0.34,0.34-0.74,0.5-1.22,0.5
		C77.38,123.75,76.97,123.58,76.63,123.25z M79.22,125.5v13.2h-2.73v-13.2H79.22z"/>
	<path id="XMLID_91_" class="st0" d="M102.01,125.93c0.82,0.43,1.47,1.07,1.94,1.92c0.47,0.85,0.71,1.87,0.71,3.07v7.79h-2.71v-7.38
		c0-1.18-0.3-2.09-0.89-2.72c-0.59-0.63-1.4-0.95-2.42-0.95c-1.02,0-1.83,0.32-2.43,0.95c-0.6,0.63-0.9,1.54-0.9,2.72v7.38h-2.71
		v-7.38c0-1.18-0.3-2.09-0.89-2.72c-0.59-0.63-1.4-0.95-2.42-0.95c-1.02,0-1.83,0.32-2.43,0.95c-0.6,0.63-0.9,1.54-0.9,2.72v7.38
		h-2.73v-13.2h2.73v1.51c0.45-0.54,1.01-0.97,1.7-1.27c0.69-0.3,1.42-0.46,2.2-0.46c1.05,0,2,0.22,2.83,0.67
		c0.83,0.45,1.47,1.09,1.92,1.94c0.4-0.8,1.02-1.43,1.87-1.9s1.76-0.71,2.73-0.71C100.26,125.28,101.19,125.5,102.01,125.93z"/>
	<path id="XMLID_93_" class="st0" d="M120.56,133.12h-10.09c0.08,1.05,0.47,1.9,1.17,2.54c0.7,0.64,1.56,0.96,2.59,0.96
		c1.47,0,2.51-0.61,3.11-1.84h2.95c-0.4,1.21-1.12,2.21-2.17,2.98c-1.05,0.77-2.34,1.16-3.89,1.16c-1.26,0-2.39-0.28-3.39-0.85
		c-1-0.57-1.78-1.37-2.35-2.4c-0.57-1.03-0.85-2.22-0.85-3.58s0.28-2.55,0.83-3.58c0.55-1.03,1.33-1.82,2.32-2.38
		c1-0.56,2.14-0.84,3.44-0.84c1.25,0,2.35,0.27,3.33,0.81c0.97,0.54,1.73,1.31,2.28,2.29c0.54,0.98,0.81,2.11,0.81,3.39
		C120.66,132.27,120.63,132.72,120.56,133.12z M117.81,130.91c-0.02-1.01-0.38-1.81-1.08-2.42c-0.7-0.61-1.57-0.91-2.61-0.91
		c-0.94,0-1.75,0.3-2.42,0.9c-0.67,0.6-1.07,1.41-1.2,2.43H117.81z"/>
	<path id="XMLID_96_" class="st0" d="M133.22,125.93c0.82,0.43,1.46,1.07,1.93,1.92c0.46,0.85,0.69,1.87,0.69,3.07v7.79h-2.71v-7.38
		c0-1.18-0.3-2.09-0.89-2.72c-0.59-0.63-1.4-0.95-2.42-0.95c-1.02,0-1.83,0.32-2.43,0.95c-0.6,0.63-0.9,1.54-0.9,2.72v7.38h-2.73
		v-13.2h2.73v1.51c0.45-0.54,1.02-0.97,1.71-1.27c0.69-0.3,1.43-0.46,2.21-0.46C131.47,125.28,132.4,125.5,133.22,125.93z"/>
	<path id="XMLID_98_" class="st0" d="M142.94,127.73v7.31c0,0.5,0.12,0.85,0.35,1.07c0.23,0.22,0.63,0.32,1.19,0.32h1.68v2.28h-2.16
		c-1.23,0-2.17-0.29-2.83-0.86s-0.98-1.51-0.98-2.8v-7.31h-1.56v-2.23h1.56v-3.28h2.76v3.28h3.21v2.23H142.94z"/>
	<path id="XMLID_100_" class="st0" d="M151.44,138.06c-1.01-0.57-1.8-1.37-2.37-2.4c-0.57-1.03-0.86-2.22-0.86-3.58
		c0-1.34,0.3-2.53,0.89-3.57c0.59-1.04,1.4-1.84,2.42-2.4c1.02-0.56,2.16-0.84,3.43-0.84c1.26,0,2.4,0.28,3.43,0.84
		c1.02,0.56,1.83,1.36,2.42,2.4c0.59,1.04,0.89,2.23,0.89,3.57c0,1.34-0.3,2.53-0.91,3.57c-0.61,1.04-1.43,1.84-2.48,2.41
		c-1.05,0.57-2.2,0.85-3.46,0.85C153.57,138.91,152.45,138.63,151.44,138.06z M156.79,136.04c0.61-0.34,1.11-0.84,1.5-1.51
		c0.38-0.67,0.58-1.49,0.58-2.44c0-0.96-0.18-1.77-0.55-2.43c-0.37-0.66-0.86-1.16-1.46-1.5c-0.61-0.34-1.26-0.5-1.96-0.5
		c-0.7,0-1.35,0.17-1.95,0.5c-0.6,0.34-1.07,0.83-1.43,1.5c-0.35,0.66-0.53,1.47-0.53,2.43c0,1.42,0.36,2.52,1.09,3.29
		c0.73,0.78,1.64,1.16,2.74,1.16C155.52,136.54,156.18,136.37,156.79,136.04z"/>
	<path id="XMLID_103_" class="st0" d="M171.38,128.52c0.55-1.02,1.3-1.82,2.25-2.38c0.95-0.57,2.01-0.85,3.17-0.85
		c0.86,0,1.71,0.19,2.55,0.56c0.84,0.38,1.5,0.87,2,1.5v-6.37h2.75v17.73h-2.75v-1.99c-0.45,0.64-1.07,1.17-1.86,1.58
		c-0.79,0.42-1.7,0.62-2.72,0.62c-1.15,0-2.2-0.29-3.15-0.87c-0.95-0.58-1.7-1.4-2.25-2.44c-0.55-1.05-0.83-2.23-0.83-3.56
		C170.56,130.71,170.83,129.54,171.38,128.52z M180.8,129.71c-0.38-0.67-0.87-1.18-1.47-1.53c-0.61-0.35-1.26-0.53-1.96-0.53
		c-0.7,0-1.36,0.17-1.97,0.51c-0.61,0.34-1.1,0.85-1.47,1.51c-0.38,0.66-0.56,1.45-0.56,2.36c0,0.91,0.19,1.71,0.56,2.4
		c0.37,0.69,0.87,1.21,1.48,1.57c0.61,0.36,1.27,0.54,1.95,0.54c0.7,0,1.36-0.18,1.96-0.53c0.61-0.35,1.1-0.87,1.47-1.54
		c0.37-0.68,0.56-1.47,0.56-2.38C181.36,131.18,181.17,130.39,180.8,129.71z"/>
	<path id="XMLID_106_" class="st0" d="M188.28,123.25c-0.34-0.34-0.5-0.75-0.5-1.25c0-0.5,0.17-0.91,0.5-1.25
		c0.34-0.34,0.75-0.5,1.25-0.5c0.48,0,0.89,0.17,1.22,0.5c0.34,0.34,0.5,0.75,0.5,1.25c0,0.5-0.17,0.91-0.5,1.25
		c-0.34,0.34-0.74,0.5-1.22,0.5C189.03,123.75,188.62,123.58,188.28,123.25z M190.87,125.5v13.2h-2.73v-13.2H190.87z"/>
	<path id="XMLID_109_" class="st0" d="M219.09,122.05v16.65h-2.73v-11.4l-5.08,11.4h-1.89l-5.1-11.4v11.4h-2.73v-16.65h2.95
		l5.84,13.05l5.82-13.05H219.09z"/>
	<path id="XMLID_111_" class="st0" d="M223.03,128.52c0.55-1.02,1.3-1.82,2.25-2.38c0.95-0.57,2-0.85,3.15-0.85
		c1.04,0,1.94,0.2,2.72,0.61c0.77,0.41,1.39,0.91,1.86,1.52v-1.92h2.75v13.2h-2.75v-1.96c-0.46,0.62-1.09,1.14-1.89,1.56
		c-0.8,0.42-1.71,0.62-2.73,0.62c-1.13,0-2.17-0.29-3.11-0.87c-0.94-0.58-1.69-1.4-2.24-2.44c-0.55-1.05-0.83-2.23-0.83-3.56
		C222.2,130.71,222.48,129.54,223.03,128.52z M232.44,129.71c-0.38-0.67-0.87-1.18-1.47-1.53c-0.61-0.35-1.26-0.53-1.96-0.53
		c-0.7,0-1.36,0.17-1.97,0.51c-0.61,0.34-1.1,0.85-1.47,1.51c-0.38,0.66-0.56,1.45-0.56,2.36c0,0.91,0.19,1.71,0.56,2.4
		c0.37,0.69,0.87,1.21,1.48,1.57c0.61,0.36,1.27,0.54,1.95,0.54c0.7,0,1.36-0.18,1.96-0.53c0.61-0.35,1.1-0.87,1.47-1.54
		c0.37-0.68,0.56-1.47,0.56-2.38C233.01,131.18,232.82,130.39,232.44,129.71z"/>
	<path id="XMLID_114_" class="st0" d="M242.97,127.73v7.31c0,0.5,0.12,0.85,0.35,1.07c0.23,0.22,0.63,0.32,1.19,0.32h1.68v2.28
		h-2.16c-1.23,0-2.17-0.29-2.83-0.86s-0.98-1.51-0.98-2.8v-7.31h-1.56v-2.23h1.56v-3.28h2.76v3.28h3.21v2.23H242.97z"/>
	<path id="XMLID_116_" class="st0" d="M261.13,133.12h-10.09c0.08,1.05,0.47,1.9,1.17,2.54c0.7,0.64,1.56,0.96,2.59,0.96
		c1.47,0,2.51-0.61,3.11-1.84h2.95c-0.4,1.21-1.12,2.21-2.17,2.98c-1.05,0.77-2.34,1.16-3.89,1.16c-1.26,0-2.39-0.28-3.39-0.85
		c-1-0.57-1.78-1.37-2.35-2.4s-0.85-2.22-0.85-3.58s0.28-2.55,0.83-3.58c0.55-1.03,1.33-1.82,2.32-2.38c1-0.56,2.14-0.84,3.44-0.84
		c1.25,0,2.35,0.27,3.33,0.81c0.97,0.54,1.73,1.31,2.28,2.29c0.54,0.98,0.81,2.11,0.81,3.39
		C261.22,132.27,261.19,132.72,261.13,133.12z M258.37,130.91c-0.02-1.01-0.38-1.81-1.08-2.42c-0.7-0.61-1.57-0.91-2.61-0.91
		c-0.94,0-1.75,0.3-2.42,0.9c-0.67,0.6-1.07,1.41-1.2,2.43H258.37z"/>
	<path id="XMLID_119_" class="st0" d="M283.11,125.93c0.82,0.43,1.47,1.07,1.94,1.92c0.47,0.85,0.71,1.87,0.71,3.07v7.79h-2.71
		v-7.38c0-1.18-0.3-2.09-0.89-2.72c-0.59-0.63-1.4-0.95-2.42-0.95s-1.83,0.32-2.43,0.95c-0.6,0.63-0.9,1.54-0.9,2.72v7.38h-2.71
		v-7.38c0-1.18-0.3-2.09-0.89-2.72c-0.59-0.63-1.4-0.95-2.42-0.95c-1.02,0-1.83,0.32-2.43,0.95c-0.6,0.63-0.9,1.54-0.9,2.72v7.38
		h-2.73v-13.2h2.73v1.51c0.45-0.54,1.01-0.97,1.7-1.27c0.69-0.3,1.42-0.46,2.2-0.46c1.05,0,2,0.22,2.83,0.67
		c0.83,0.45,1.47,1.09,1.92,1.94c0.4-0.8,1.02-1.43,1.87-1.9s1.76-0.71,2.73-0.71C281.35,125.28,282.28,125.5,283.11,125.93z"/>
	<path id="XMLID_121_" class="st0" d="M289.57,128.52c0.55-1.02,1.3-1.82,2.25-2.38c0.95-0.57,2-0.85,3.15-0.85
		c1.04,0,1.94,0.2,2.72,0.61c0.77,0.41,1.39,0.91,1.86,1.52v-1.92h2.75v13.2h-2.75v-1.96c-0.46,0.62-1.09,1.14-1.89,1.56
		c-0.8,0.42-1.71,0.62-2.73,0.62c-1.13,0-2.17-0.29-3.11-0.87c-0.94-0.58-1.69-1.4-2.24-2.44c-0.55-1.05-0.83-2.23-0.83-3.56
		C288.75,130.71,289.02,129.54,289.57,128.52z M298.99,129.71c-0.38-0.67-0.87-1.18-1.47-1.53c-0.61-0.35-1.26-0.53-1.96-0.53
		c-0.7,0-1.36,0.17-1.97,0.51c-0.61,0.34-1.1,0.85-1.47,1.51c-0.38,0.66-0.56,1.45-0.56,2.36c0,0.91,0.19,1.71,0.56,2.4
		c0.37,0.69,0.87,1.21,1.48,1.57c0.61,0.36,1.27,0.54,1.95,0.54c0.7,0,1.36-0.18,1.96-0.53c0.61-0.35,1.1-0.87,1.47-1.54
		c0.37-0.68,0.56-1.47,0.56-2.38C299.55,131.18,299.36,130.39,298.99,129.71z"/>
	<path id="XMLID_124_" class="st0" d="M309.52,127.73v7.31c0,0.5,0.12,0.85,0.35,1.07c0.23,0.22,0.63,0.32,1.19,0.32h1.68v2.28
		h-2.16c-1.23,0-2.17-0.29-2.83-0.86c-0.65-0.58-0.98-1.51-0.98-2.8v-7.31h-1.56v-2.23h1.56v-3.28h2.76v3.28h3.21v2.23H309.52z"/>
	<path id="XMLID_126_" class="st0" d="M315.82,123.25c-0.34-0.34-0.5-0.75-0.5-1.25c0-0.5,0.17-0.91,0.5-1.25
		c0.34-0.34,0.75-0.5,1.25-0.5c0.48,0,0.89,0.17,1.22,0.5c0.34,0.34,0.5,0.75,0.5,1.25c0,0.5-0.17,0.91-0.5,1.25
		c-0.34,0.34-0.74,0.5-1.22,0.5C316.57,123.75,316.15,123.58,315.82,123.25z M318.4,125.5v13.2h-2.73v-13.2H318.4z"/>
	<path id="XMLID_129_" class="st0" d="M322.34,128.5c0.55-1.03,1.31-1.82,2.29-2.38c0.97-0.56,2.09-0.84,3.35-0.84
		c1.6,0,2.92,0.38,3.96,1.14c1.05,0.76,1.75,1.84,2.12,3.25h-2.95c-0.24-0.65-0.62-1.17-1.15-1.53c-0.53-0.37-1.19-0.55-1.99-0.55
		c-1.12,0-2.01,0.4-2.67,1.19c-0.66,0.79-0.99,1.9-0.99,3.32c0,1.42,0.33,2.53,0.99,3.33c0.66,0.8,1.55,1.2,2.67,1.2
		c1.58,0,2.63-0.69,3.14-2.08h2.95c-0.38,1.34-1.1,2.41-2.16,3.2c-1.05,0.79-2.36,1.19-3.93,1.19c-1.26,0-2.38-0.28-3.35-0.85
		c-0.97-0.57-1.74-1.37-2.29-2.4c-0.55-1.03-0.83-2.22-0.83-3.58S321.79,129.54,322.34,128.5z"/>
	<path id="XMLID_131_" class="st0" d="M337.15,128.52c0.55-1.02,1.3-1.82,2.25-2.38c0.95-0.57,2-0.85,3.15-0.85
		c1.04,0,1.94,0.2,2.72,0.61c0.77,0.41,1.39,0.91,1.86,1.52v-1.92h2.75v13.2h-2.75v-1.96c-0.46,0.62-1.09,1.14-1.89,1.56
		c-0.8,0.42-1.71,0.62-2.73,0.62c-1.13,0-2.17-0.29-3.11-0.87c-0.94-0.58-1.69-1.4-2.24-2.44c-0.55-1.05-0.83-2.23-0.83-3.56
		C336.32,130.71,336.6,129.54,337.15,128.52z M346.56,129.71c-0.38-0.67-0.87-1.18-1.47-1.53c-0.61-0.35-1.26-0.53-1.96-0.53
		c-0.7,0-1.36,0.17-1.97,0.51c-0.61,0.34-1.1,0.85-1.47,1.51c-0.38,0.66-0.56,1.45-0.56,2.36c0,0.91,0.19,1.71,0.56,2.4
		c0.37,0.69,0.87,1.21,1.48,1.57c0.61,0.36,1.27,0.54,1.95,0.54c0.7,0,1.36-0.18,1.96-0.53c0.61-0.35,1.1-0.87,1.47-1.54
		c0.37-0.68,0.56-1.47,0.56-2.38C347.12,131.18,346.94,130.39,346.56,129.71z"/>
</g>
<g id="XMLID_1_">
	<path id="XMLID_29_" class="st0" d="M77.55,153.19v11.13c0,1.75,0.42,3.05,1.25,3.89c0.83,0.84,1.98,1.26,3.43,1.26
		c1.45,0,2.58-0.42,3.4-1.25s1.23-2.14,1.23-3.91v-11.13h1.77v11.1c0,2.24-0.59,3.93-1.78,5.06c-1.19,1.13-2.73,1.69-4.64,1.69
		s-3.45-0.56-4.64-1.69c-1.19-1.13-1.78-2.82-1.78-5.06v-11.1H77.55z"/>
	<path id="XMLID_31_" class="st0" d="M103.09,158.34c1.04,1.02,1.57,2.5,1.57,4.44v8.09h-1.74v-7.89c0-1.5-0.38-2.65-1.13-3.44
		c-0.75-0.79-1.77-1.19-3.07-1.19c-1.33,0-2.39,0.42-3.19,1.26c-0.79,0.84-1.19,2.08-1.19,3.72v7.54h-1.77v-13.81h1.77v2.35
		c0.44-0.84,1.07-1.49,1.9-1.93c0.83-0.45,1.76-0.67,2.81-0.67C100.69,156.81,102.04,157.32,103.09,158.34z"/>
	<path id="XMLID_33_" class="st0" d="M108.55,154.07c-0.25-0.25-0.38-0.56-0.38-0.94c0-0.37,0.13-0.68,0.38-0.92
		c0.25-0.24,0.56-0.37,0.91-0.37c0.35,0,0.66,0.12,0.91,0.37c0.25,0.24,0.38,0.55,0.38,0.92c0,0.37-0.13,0.68-0.38,0.94
		c-0.25,0.25-0.56,0.38-0.91,0.38C109.11,154.45,108.8,154.33,108.55,154.07z M110.35,157.06v13.81h-1.77v-13.81H110.35z"/>
	<path id="XMLID_36_" class="st0" d="M119.27,169.14l4.65-12.09h1.87l-5.54,13.81h-2l-5.54-13.81h1.9L119.27,169.14z"/>
	<path id="XMLID_38_" class="st0" d="M140.64,164.64h-11.45c0.05,1.04,0.3,1.94,0.76,2.68c0.45,0.74,1.05,1.3,1.79,1.68
		c0.74,0.38,1.55,0.57,2.43,0.57c1.15,0,2.11-0.28,2.9-0.83c0.78-0.56,1.3-1.31,1.55-2.25h1.87c-0.34,1.35-1.06,2.45-2.16,3.3
		c-1.1,0.85-2.49,1.28-4.16,1.28c-1.3,0-2.46-0.29-3.49-0.87c-1.03-0.58-1.83-1.41-2.41-2.48c-0.58-1.07-0.87-2.32-0.87-3.75
		s0.29-2.69,0.86-3.77c0.57-1.08,1.37-1.9,2.4-2.48c1.03-0.57,2.2-0.86,3.51-0.86c1.32,0,2.47,0.29,3.45,0.86s1.74,1.34,2.28,2.31
		c0.53,0.97,0.8,2.04,0.8,3.22C140.69,163.86,140.67,164.32,140.64,164.64z M138.27,160.57c-0.43-0.72-1.02-1.27-1.76-1.64
		c-0.74-0.37-1.55-0.56-2.43-0.56c-1.32,0-2.44,0.42-3.36,1.26c-0.93,0.84-1.44,2.03-1.54,3.57h9.71
		C138.91,162.17,138.7,161.3,138.27,160.57z"/>
	<path id="XMLID_41_" class="st0" d="M147.48,157.51c0.8-0.47,1.78-0.71,2.95-0.71v1.85h-0.48c-1.28,0-2.31,0.35-3.09,1.04
		c-0.77,0.69-1.16,1.85-1.16,3.46v7.71h-1.77v-13.81h1.77v2.45C146.08,158.65,146.68,157.99,147.48,157.51z"/>
	<path id="XMLID_43_" class="st0" d="M153.95,169.97c-1-0.73-1.56-1.73-1.68-3h1.82c0.08,0.78,0.45,1.4,1.1,1.88
		c0.65,0.48,1.52,0.72,2.62,0.72c0.96,0,1.71-0.23,2.26-0.68c0.55-0.46,0.82-1.02,0.82-1.69c0-0.47-0.15-0.86-0.45-1.16
		c-0.3-0.3-0.69-0.54-1.15-0.72c-0.46-0.18-1.09-0.37-1.88-0.57c-1.03-0.27-1.86-0.54-2.5-0.81s-1.18-0.67-1.63-1.2
		c-0.45-0.53-0.67-1.24-0.67-2.14c0-0.67,0.2-1.3,0.61-1.87c0.4-0.57,0.98-1.03,1.72-1.37c0.74-0.34,1.58-0.51,2.53-0.51
		c1.48,0,2.68,0.37,3.59,1.12c0.91,0.75,1.4,1.78,1.47,3.1h-1.77c-0.05-0.81-0.37-1.46-0.95-1.96c-0.58-0.5-1.38-0.75-2.39-0.75
		c-0.89,0-1.62,0.21-2.17,0.63c-0.56,0.42-0.83,0.94-0.83,1.57c0,0.54,0.17,0.98,0.49,1.33c0.33,0.35,0.74,0.62,1.23,0.81
		c0.49,0.19,1.15,0.41,1.97,0.64c0.99,0.27,1.79,0.53,2.38,0.78c0.59,0.25,1.1,0.62,1.52,1.11c0.42,0.49,0.64,1.14,0.66,1.95
		c0,0.74-0.2,1.4-0.61,1.98s-0.97,1.04-1.69,1.38c-0.72,0.34-1.56,0.51-2.5,0.51C156.25,171.07,154.95,170.7,153.95,169.97z"/>
	<path id="XMLID_45_" class="st0" d="M165.95,154.07c-0.25-0.25-0.38-0.56-0.38-0.94c0-0.37,0.13-0.68,0.38-0.92
		c0.25-0.24,0.56-0.37,0.91-0.37c0.35,0,0.66,0.12,0.91,0.37c0.25,0.24,0.38,0.55,0.38,0.92c0,0.37-0.13,0.68-0.38,0.94
		c-0.25,0.25-0.56,0.38-0.91,0.38C166.5,154.45,166.2,154.33,165.95,154.07z M167.74,157.06v13.81h-1.77v-13.81H167.74z"/>
	<path id="XMLID_48_" class="st0" d="M174.06,158.55v8.57c0,0.84,0.16,1.42,0.48,1.74c0.32,0.32,0.89,0.48,1.69,0.48h1.62v1.52h-1.9
		c-1.25,0-2.17-0.29-2.78-0.87c-0.61-0.58-0.91-1.54-0.91-2.87v-8.57h-1.92v-1.49h1.92v-3.46h1.79v3.46h3.79v1.49H174.06z"/>
	<path id="XMLID_50_" class="st0" d="M180.8,160.21c0.56-1.07,1.35-1.9,2.35-2.48s2.14-0.87,3.4-0.87c1.32,0,2.45,0.3,3.4,0.91
		c0.95,0.61,1.64,1.38,2.06,2.33v-3.03h1.77v13.81h-1.77v-3.06c-0.44,0.94-1.13,1.72-2.09,2.34c-0.95,0.62-2.09,0.92-3.4,0.92
		c-1.25,0-2.37-0.29-3.38-0.89c-1-0.59-1.79-1.42-2.35-2.5c-0.57-1.08-0.85-2.33-0.85-3.74S180.24,161.28,180.8,160.21z
		 M191.33,161.03c-0.45-0.84-1.07-1.49-1.86-1.95c-0.78-0.45-1.65-0.68-2.59-0.68c-0.98,0-1.85,0.22-2.63,0.66
		c-0.77,0.44-1.39,1.07-1.83,1.91c-0.45,0.83-0.67,1.82-0.67,2.97c0,1.13,0.22,2.12,0.67,2.97c0.45,0.85,1.06,1.5,1.83,1.95
		c0.78,0.45,1.65,0.67,2.63,0.67c0.94,0,1.81-0.23,2.59-0.68s1.4-1.1,1.86-1.95c0.45-0.84,0.68-1.82,0.68-2.93
		S191.79,161.87,191.33,161.03z M189.64,154.63V156l-5.18-3.01v-1.59L189.64,154.63z"/>
	<path id="XMLID_54_" class="st0" d="M204.81,160.21c0.57-1.07,1.36-1.9,2.37-2.48c1-0.58,2.14-0.87,3.4-0.87
		c1.21,0,2.31,0.3,3.29,0.89c0.98,0.59,1.69,1.36,2.15,2.3v-7.89h1.77v18.71h-1.77v-3.08c-0.42,0.96-1.11,1.75-2.07,2.36
		c-0.96,0.62-2.09,0.92-3.39,0.92c-1.26,0-2.4-0.29-3.4-0.89c-1-0.59-1.79-1.42-2.35-2.5c-0.57-1.08-0.85-2.33-0.85-3.74
		S204.24,161.28,204.81,160.21z M215.33,161.03c-0.45-0.84-1.07-1.49-1.86-1.95c-0.78-0.45-1.65-0.68-2.59-0.68
		c-0.98,0-1.85,0.22-2.63,0.66c-0.77,0.44-1.39,1.07-1.83,1.91c-0.45,0.83-0.67,1.82-0.67,2.97c0,1.13,0.22,2.12,0.67,2.97
		c0.45,0.85,1.06,1.5,1.83,1.95c0.78,0.45,1.65,0.67,2.63,0.67c0.94,0,1.81-0.23,2.59-0.68s1.4-1.1,1.86-1.95
		c0.45-0.84,0.68-1.82,0.68-2.93S215.78,161.87,215.33,161.03z"/>
	<path id="XMLID_57_" class="st0" d="M221.8,154.07c-0.25-0.25-0.38-0.56-0.38-0.94c0-0.37,0.13-0.68,0.38-0.92
		c0.25-0.24,0.56-0.37,0.91-0.37c0.35,0,0.66,0.12,0.91,0.37c0.25,0.24,0.38,0.55,0.38,0.92c0,0.37-0.13,0.68-0.38,0.94
		c-0.25,0.25-0.56,0.38-0.91,0.38C222.36,154.45,222.06,154.33,221.8,154.07z M223.6,157.06v13.81h-1.77v-13.81H223.6z"/>
	<path id="XMLID_60_" class="st0" d="M244.36,161.94c-0.99,0.93-2.49,1.39-4.47,1.39h-3.57v7.54h-1.77v-17.67h5.34
		c1.97,0,3.46,0.46,4.46,1.39c1,0.93,1.5,2.16,1.5,3.69C245.85,159.79,245.35,161.01,244.36,161.94z M244.03,158.27
		c0-1.18-0.33-2.07-0.99-2.68s-1.71-0.91-3.16-0.91h-3.57v7.13h3.57C242.65,161.81,244.03,160.63,244.03,158.27z"/>
	<path id="XMLID_63_" class="st0" d="M248.78,154.07c-0.25-0.25-0.38-0.56-0.38-0.94c0-0.37,0.13-0.68,0.38-0.92
		c0.25-0.24,0.56-0.37,0.91-0.37c0.35,0,0.66,0.12,0.91,0.37c0.25,0.24,0.38,0.55,0.38,0.92c0,0.37-0.13,0.68-0.38,0.94
		c-0.25,0.25-0.56,0.38-0.91,0.38C249.34,154.45,249.04,154.33,248.78,154.07z M250.58,157.06v13.81h-1.77v-13.81H250.58z"/>
	<path id="XMLID_66_" class="st0" d="M255.47,169.97c-1-0.73-1.56-1.73-1.68-3h1.82c0.08,0.78,0.45,1.4,1.1,1.88
		c0.65,0.48,1.52,0.72,2.62,0.72c0.96,0,1.71-0.23,2.26-0.68c0.55-0.46,0.82-1.02,0.82-1.69c0-0.47-0.15-0.86-0.45-1.16
		c-0.3-0.3-0.69-0.54-1.15-0.72c-0.46-0.18-1.09-0.37-1.88-0.57c-1.03-0.27-1.86-0.54-2.5-0.81c-0.64-0.27-1.18-0.67-1.63-1.2
		c-0.45-0.53-0.67-1.24-0.67-2.14c0-0.67,0.2-1.3,0.61-1.87c0.4-0.57,0.98-1.03,1.72-1.37c0.74-0.34,1.58-0.51,2.53-0.51
		c1.48,0,2.68,0.37,3.59,1.12c0.91,0.75,1.4,1.78,1.47,3.1h-1.77c-0.05-0.81-0.37-1.46-0.95-1.96c-0.58-0.5-1.38-0.75-2.39-0.75
		c-0.89,0-1.62,0.21-2.17,0.63c-0.56,0.42-0.83,0.94-0.83,1.57c0,0.54,0.17,0.98,0.49,1.33c0.33,0.35,0.74,0.62,1.23,0.81
		c0.49,0.19,1.15,0.41,1.97,0.64c0.99,0.27,1.79,0.53,2.38,0.78c0.59,0.25,1.1,0.62,1.52,1.11c0.42,0.49,0.64,1.14,0.66,1.95
		c0,0.74-0.2,1.4-0.61,1.98s-0.97,1.04-1.69,1.38c-0.72,0.34-1.56,0.51-2.5,0.51C257.77,171.07,256.47,170.7,255.47,169.97z"/>
	<path id="XMLID_68_" class="st0" d="M267.53,160.21c0.56-1.07,1.35-1.9,2.35-2.48s2.14-0.87,3.4-0.87c1.32,0,2.45,0.3,3.4,0.91
		c0.95,0.61,1.64,1.38,2.06,2.33v-3.03h1.77v13.81h-1.77v-3.06c-0.44,0.94-1.13,1.72-2.09,2.34s-2.09,0.92-3.4,0.92
		c-1.25,0-2.37-0.29-3.38-0.89c-1-0.59-1.79-1.42-2.35-2.5c-0.57-1.08-0.85-2.33-0.85-3.74S266.97,161.28,267.53,160.21z
		 M278.06,161.03c-0.45-0.84-1.07-1.49-1.86-1.95c-0.78-0.45-1.65-0.68-2.59-0.68c-0.98,0-1.85,0.22-2.63,0.66
		c-0.77,0.44-1.39,1.07-1.83,1.91c-0.45,0.83-0.67,1.82-0.67,2.97c0,1.13,0.22,2.12,0.67,2.97c0.45,0.85,1.06,1.5,1.83,1.95
		c0.78,0.45,1.65,0.67,2.63,0.67c0.94,0,1.81-0.23,2.59-0.68c0.78-0.45,1.4-1.1,1.86-1.95c0.45-0.84,0.68-1.82,0.68-2.93
		S278.52,161.87,278.06,161.03z"/>
</g>
</svg>
