<?xml version="1.0" encoding="utf-8"?>
<!-- Generator: Adobe Illustrator 26.3.1, SVG Export Plug-In . SVG Version: 6.00 Build 0)  -->
<svg version="1.1" id="Livello_1" xmlns="http://www.w3.org/2000/svg" xmlns:xlink="http://www.w3.org/1999/xlink" x="0px" y="0px"
	 viewBox="0 0 385.82 106.62" style="enable-background:new 0 0 385.82 106.62;" xml:space="preserve">
<style type="text/css">
	.st0{fill:#06467C;}
</style>
<g id="XMLID_321_">
	<g id="XMLID_325_">
		<path id="XMLID_345_" class="st0" d="M124.21,21.54C121.24,7.86,116.33,0,116.33,0L68.51,28.51c0.36,0.78,0.66,1.59,0.9,2.43
			L124.21,21.54z"/>
		<path id="XMLID_344_" class="st0" d="M70.02,36.33l54.57,10.07c2.06-8.41,0.23-20.94,0.23-20.94l-54.85,8.29
			c0.06,0.56,0.09,1.12,0.09,1.69C70.04,35.74,70.03,36.03,70.02,36.33z"/>
		<path id="XMLID_343_" class="st0" d="M116.44,69.89c4.93-7.36,7.29-19.2,7.29-19.2l-54.07-11.7c-0.23,1.07-0.57,2.09-1,3.07
			L116.44,69.89z"/>
		<path id="XMLID_342_" class="st0" d="M100.75,89.17c6.64-4.87,13.53-15.77,13.53-15.77L67.47,44.27
			c-0.59,0.92-1.26,1.78-2.02,2.57L100.75,89.17z"/>
		<path id="XMLID_341_" class="st0" d="M79.4,101.93c9.84-3.5,18.34-10.35,18.34-10.35l-34.13-43.1c-0.89,0.68-1.84,1.28-2.86,1.77
			L79.4,101.93z"/>
		<path id="XMLID_340_" class="st0" d="M54.99,106.62c15.02-0.72,19.93-3.01,19.93-3.01L58.38,51.18c-1,0.31-2.05,0.52-3.12,0.63
			L54.99,106.62z"/>
		<path id="XMLID_339_" class="st0" d="M31.09,100.91c10.94,5.68,19.78,5.71,19.78,5.71l1.74-54.76c-1.11-0.06-2.18-0.24-3.22-0.51
			L31.09,100.91z"/>
		<path id="XMLID_338_" class="st0" d="M12.5,86.11c5.9,7.95,15.08,12.88,15.08,12.88l19.35-48.51c-1.01-0.45-1.96-0.99-2.85-1.62
			L12.5,86.11z"/>
		<path id="XMLID_337_" class="st0" d="M39.88,44.53L2.11,66.26c3.01,10.32,7.82,16.4,7.82,16.4l32.1-35.52
			C41.23,46.35,40.51,45.48,39.88,44.53z"/>
		<path id="XMLID_336_" class="st0" d="M0.21,45.69c-0.79,9.98,0.91,16.39,0.91,16.39l37.57-19.67c-0.46-0.99-0.83-2.04-1.09-3.12
			L0.21,45.69z"/>
		<path id="XMLID_335_" class="st0" d="M37.25,33.51L5.91,27.79c-5.37,9.74-5.23,13.98-5.23,13.98l36.5-5.04
			c-0.03-0.43-0.06-0.86-0.06-1.3C37.14,34.79,37.18,34.15,37.25,33.51z"/>
		<path id="XMLID_333_" class="st0" d="M16.1,14.64C9.26,21.05,7.69,24.7,7.69,24.7l30.07,6.24c0.3-1.06,0.71-2.08,1.21-3.05
			L16.1,14.64z"/>
		<path id="XMLID_332_" class="st0" d="M41.99,23.77L28.73,6.39c-5.85,2.32-9.76,5.44-9.76,5.44l21,14.37
			C40.57,25.33,41.24,24.51,41.99,23.77z"/>
		<path id="XMLID_330_" class="st0" d="M40.71,2.54c-5.2,0.82-9.47,2.66-9.47,2.66l13.24,16.54c0.82-0.55,1.7-1.02,2.62-1.42
			L40.71,2.54z"/>
		<path id="XMLID_329_" class="st0" d="M52.61,1.92c-6.15-0.47-8.77,0.14-8.77,0.14l5.8,17.41c0.96-0.24,1.95-0.39,2.97-0.45V1.92z"
			/>
		<path id="XMLID_328_" class="st0" d="M63.84,4.03c-3.36-1.17-7.99-1.88-7.99-1.88l-0.73,16.91c1.04,0.1,2.05,0.29,3.02,0.57
			L63.84,4.03z"/>
		<path id="XMLID_327_" class="st0" d="M67.07,26.01l16.96-9.82c-3.48-3.73-7.09-5.89-7.09-5.89L64.67,23.27
			C65.56,24.09,66.37,25.01,67.07,26.01z"/>
		<path id="XMLID_326_" class="st0" d="M74.36,8.68c-2.74-1.75-7.45-3.59-7.45-3.59l-6.49,15.38c1.06,0.49,2.07,1.08,3,1.77
			L74.36,8.68z"/>
	</g>
	<g id="XMLID_388_">
		<g>
			<path id="XMLID_00000073704393511468105090000003795807769176636295_" class="st0" d="M168.03,8.27c1.6,0.81,2.84,1.98,3.71,3.51
				c0.87,1.52,1.31,3.3,1.31,5.33c0,2.03-0.44,3.8-1.31,5.29c-0.87,1.5-2.11,2.64-3.71,3.44c-1.6,0.8-3.47,1.19-5.59,1.19h-6.53
				V7.05h6.53C164.57,7.05,166.43,7.46,168.03,8.27z M167.82,22.46c1.25-1.26,1.87-3.05,1.87-5.35c0-2.32-0.62-4.13-1.87-5.43
				c-1.25-1.3-3.04-1.95-5.38-1.95h-3.25v14.63h3.25C164.78,24.36,166.57,23.72,167.82,22.46z"/>
			<path id="XMLID_00000137835588367596240930000001452629616425195425_" class="st0" d="M176.99,8.49c-0.4-0.4-0.6-0.9-0.6-1.5
				c0-0.59,0.2-1.09,0.6-1.49c0.4-0.4,0.9-0.6,1.5-0.6c0.57,0,1.06,0.2,1.47,0.6c0.4,0.4,0.6,0.9,0.6,1.49c0,0.59-0.2,1.09-0.6,1.5
				c-0.4,0.4-0.89,0.6-1.47,0.6C177.89,9.09,177.39,8.89,176.99,8.49z M180.1,11.19v15.84h-3.28V11.19H180.1z"/>
			<path id="XMLID_00000054959743010710781890000015314140961443185848_" class="st0" d="M190.47,11.68
				c0.96-0.5,2.04-0.75,3.25-0.75c1.38,0,2.64,0.34,3.78,1.02c1.14,0.68,2.04,1.63,2.69,2.86c0.65,1.23,0.98,2.64,0.98,4.23
				c0,1.59-0.33,3.01-0.98,4.27s-1.55,2.23-2.69,2.93c-1.14,0.7-2.4,1.05-3.78,1.05c-1.21,0-2.28-0.24-3.22-0.73
				c-0.94-0.49-1.71-1.1-2.3-1.83v9.83h-3.28V11.19h3.28v2.33C188.76,12.79,189.51,12.18,190.47,11.68z M197.16,16.21
				c-0.45-0.8-1.04-1.4-1.78-1.81c-0.74-0.41-1.53-0.62-2.37-0.62c-0.82,0-1.6,0.21-2.34,0.63c-0.74,0.42-1.33,1.03-1.78,1.84
				c-0.45,0.81-0.68,1.75-0.68,2.85c0,1.09,0.22,2.05,0.68,2.86c0.45,0.81,1.04,1.43,1.78,1.85c0.74,0.42,1.52,0.63,2.34,0.63
				c0.84,0,1.63-0.22,2.37-0.65c0.74-0.43,1.33-1.06,1.78-1.88c0.45-0.82,0.68-1.78,0.68-2.88C197.83,17.95,197.61,17,197.16,16.21z
				"/>
			<path id="XMLID_00000080200522766119692850000010088526954741201576_" class="st0" d="M204.83,14.81
				c0.66-1.23,1.56-2.18,2.7-2.86s2.4-1.02,3.78-1.02c1.25,0,2.33,0.24,3.26,0.73c0.93,0.49,1.67,1.1,2.23,1.82v-2.3h3.31v15.84
				h-3.31v-2.36c-0.56,0.75-1.31,1.37-2.27,1.87c-0.96,0.5-2.05,0.75-3.28,0.75c-1.36,0-2.61-0.35-3.74-1.05
				c-1.13-0.7-2.03-1.68-2.69-2.93c-0.66-1.26-0.99-2.68-0.99-4.27C203.84,17.45,204.17,16.04,204.83,14.81z M216.13,16.25
				c-0.45-0.81-1.04-1.42-1.77-1.84c-0.73-0.42-1.51-0.63-2.36-0.63s-1.63,0.21-2.36,0.62c-0.73,0.41-1.32,1.02-1.77,1.81
				c-0.45,0.79-0.68,1.74-0.68,2.83c0,1.09,0.23,2.05,0.68,2.88c0.45,0.82,1.04,1.45,1.78,1.88c0.74,0.43,1.52,0.65,2.34,0.65
				c0.84,0,1.63-0.21,2.36-0.63c0.73-0.42,1.32-1.04,1.77-1.85c0.45-0.81,0.68-1.77,0.68-2.86C216.81,18,216.58,17.05,216.13,16.25z
				"/>
			<path id="XMLID_00000031199286637726914810000002468432780872976006_" class="st0" d="M230.13,11.61
				c0.79-0.45,1.74-0.68,2.83-0.68v3.39h-0.83c-1.28,0-2.26,0.33-2.92,0.98c-0.66,0.65-0.99,1.78-0.99,3.39v8.34h-3.28V11.19h3.28
				v2.3C228.7,12.68,229.34,12.06,230.13,11.61z"/>
			<path id="XMLID_00000142856261820162085410000014667108221614535090_" class="st0" d="M240.33,13.86v8.77
				c0,0.59,0.14,1.02,0.42,1.28s0.75,0.39,1.42,0.39h2.01v2.73h-2.59c-1.48,0-2.61-0.35-3.39-1.04c-0.79-0.69-1.18-1.81-1.18-3.36
				v-8.77h-1.87v-2.67h1.87V7.25h3.31v3.94h3.85v2.67H240.33z"/>
			<path id="XMLID_00000085225719465265344140000013241617015529578943_" class="st0" d="M247.89,8.49c-0.4-0.4-0.6-0.9-0.6-1.5
				c0-0.59,0.2-1.09,0.6-1.49c0.4-0.4,0.9-0.6,1.5-0.6c0.57,0,1.06,0.2,1.47,0.6c0.4,0.4,0.6,0.9,0.6,1.49c0,0.59-0.2,1.09-0.6,1.5
				c-0.4,0.4-0.89,0.6-1.47,0.6C248.79,9.09,248.29,8.89,247.89,8.49z M250.99,11.19v15.84h-3.28V11.19H250.99z"/>
			<path id="XMLID_00000150099453236614085550000000236965848910222735_" class="st0" d="M278.35,11.71
				c0.99,0.52,1.76,1.28,2.33,2.3c0.56,1.02,0.85,2.24,0.85,3.68v9.34h-3.25v-8.85c0-1.42-0.35-2.51-1.06-3.26
				c-0.71-0.76-1.68-1.14-2.9-1.14s-2.2,0.38-2.92,1.14c-0.72,0.76-1.08,1.84-1.08,3.26v8.85h-3.25v-8.85
				c0-1.42-0.35-2.51-1.06-3.26c-0.71-0.76-1.68-1.14-2.9-1.14c-1.23,0-2.2,0.38-2.92,1.14c-0.72,0.76-1.08,1.84-1.08,3.26v8.85
				h-3.28V11.19h3.28V13c0.54-0.65,1.22-1.16,2.04-1.52c0.82-0.36,1.71-0.55,2.65-0.55c1.26,0,2.4,0.27,3.39,0.81
				c1,0.54,1.76,1.31,2.3,2.33c0.48-0.96,1.23-1.72,2.24-2.29c1.02-0.57,2.11-0.85,3.28-0.85
				C276.24,10.93,277.36,11.19,278.35,11.71z"/>
			<path id="XMLID_00000060736004399370449890000012761247724000284837_" class="st0" d="M300.61,20.33h-12.1
				c0.09,1.26,0.56,2.28,1.41,3.05c0.84,0.77,1.88,1.15,3.1,1.15c1.76,0,3.01-0.74,3.74-2.21h3.54c-0.48,1.46-1.35,2.65-2.6,3.58
				c-1.26,0.93-2.81,1.39-4.67,1.39c-1.51,0-2.87-0.34-4.07-1.02c-1.2-0.68-2.14-1.64-2.82-2.87c-0.68-1.24-1.02-2.67-1.02-4.3
				c0-1.63,0.33-3.06,0.99-4.3c0.66-1.24,1.59-2.19,2.79-2.86c1.2-0.67,2.57-1.01,4.13-1.01c1.5,0,2.83,0.33,4,0.98
				c1.17,0.65,2.08,1.57,2.73,2.75c0.65,1.18,0.98,2.53,0.98,4.07C300.73,19.32,300.69,19.85,300.61,20.33z M297.3,17.69
				c-0.02-1.21-0.45-2.18-1.29-2.9c-0.84-0.73-1.89-1.09-3.13-1.09c-1.13,0-2.1,0.36-2.9,1.08c-0.81,0.72-1.28,1.69-1.44,2.92H297.3
				z"/>
			<path id="XMLID_00000038375762793051943200000007676382881719681212_" class="st0" d="M315.81,11.71
				c0.99,0.52,1.76,1.28,2.31,2.3c0.56,1.02,0.83,2.24,0.83,3.68v9.34h-3.25v-8.85c0-1.42-0.35-2.51-1.06-3.26
				c-0.71-0.76-1.68-1.14-2.9-1.14c-1.23,0-2.2,0.38-2.92,1.14c-0.72,0.76-1.08,1.84-1.08,3.26v8.85h-3.28V11.19h3.28V13
				c0.54-0.65,1.22-1.16,2.06-1.52c0.83-0.36,1.72-0.55,2.66-0.55C313.7,10.93,314.82,11.19,315.81,11.71z"/>
			<path id="XMLID_00000177485674727076041660000012562856164118707607_" class="st0" d="M327.46,13.86v8.77
				c0,0.59,0.14,1.02,0.42,1.28s0.75,0.39,1.42,0.39h2.01v2.73h-2.59c-1.48,0-2.61-0.35-3.39-1.04c-0.79-0.69-1.18-1.81-1.18-3.36
				v-8.77h-1.87v-2.67h1.87V7.25h3.31v3.94h3.85v2.67H327.46z"/>
			<path id="XMLID_00000152969507788124955780000009430410683717227650_" class="st0" d="M337.67,26.27
				c-1.21-0.68-2.16-1.64-2.85-2.87c-0.69-1.24-1.04-2.67-1.04-4.3c0-1.61,0.35-3.04,1.06-4.28c0.71-1.25,1.68-2.2,2.9-2.87
				c1.23-0.67,2.6-1.01,4.11-1.01c1.51,0,2.88,0.34,4.11,1.01c1.23,0.67,2.19,1.63,2.9,2.87c0.71,1.25,1.06,2.67,1.06,4.28
				c0,1.61-0.36,3.04-1.09,4.28c-0.73,1.25-1.72,2.21-2.97,2.89c-1.26,0.68-2.64,1.02-4.16,1.02
				C340.23,27.29,338.88,26.95,337.67,26.27z M344.09,23.84c0.74-0.4,1.34-1.01,1.8-1.81c0.46-0.8,0.69-1.78,0.69-2.93
				c0-1.15-0.22-2.12-0.66-2.92c-0.44-0.79-1.03-1.39-1.75-1.8c-0.73-0.4-1.51-0.6-2.36-0.6c-0.84,0-1.63,0.2-2.34,0.6
				c-0.72,0.4-1.29,1-1.71,1.8c-0.42,0.79-0.63,1.77-0.63,2.92c0,1.71,0.44,3.02,1.31,3.95c0.87,0.93,1.97,1.39,3.29,1.39
				C342.57,24.44,343.36,24.24,344.09,23.84z"/>
			<path id="XMLID_00000171683626814455946290000017592443796827143577_" class="st0" d="M361.6,14.81c0.66-1.23,1.56-2.18,2.7-2.86
				c1.14-0.68,2.41-1.02,3.81-1.02c1.03,0,2.06,0.23,3.06,0.68c1.01,0.45,1.81,1.05,2.4,1.8V5.76h3.31v21.27h-3.31v-2.39
				c-0.54,0.77-1.28,1.4-2.23,1.9c-0.95,0.5-2.04,0.75-3.26,0.75c-1.38,0-2.64-0.35-3.78-1.05c-1.14-0.7-2.04-1.68-2.7-2.93
				c-0.66-1.26-0.99-2.68-0.99-4.27C360.61,17.45,360.94,16.04,361.6,14.81z M372.9,16.25c-0.45-0.81-1.04-1.42-1.77-1.84
				c-0.73-0.42-1.51-0.63-2.36-0.63c-0.84,0-1.63,0.21-2.36,0.62c-0.73,0.41-1.32,1.02-1.77,1.81c-0.45,0.79-0.68,1.74-0.68,2.83
				c0,1.09,0.23,2.05,0.68,2.88c0.45,0.82,1.04,1.45,1.78,1.88c0.74,0.43,1.52,0.65,2.34,0.65c0.84,0,1.63-0.21,2.36-0.63
				c0.73-0.42,1.32-1.04,1.77-1.85c0.45-0.81,0.68-1.77,0.68-2.86C373.58,18,373.35,17.05,372.9,16.25z"/>
			<path id="XMLID_00000044871812102203425390000008070596475691007631_" class="st0" d="M381.89,8.49c-0.4-0.4-0.6-0.9-0.6-1.5
				c0-0.59,0.2-1.09,0.6-1.49c0.4-0.4,0.9-0.6,1.5-0.6c0.57,0,1.06,0.2,1.47,0.6c0.4,0.4,0.6,0.9,0.6,1.49c0,0.59-0.2,1.09-0.6,1.5
				c-0.4,0.4-0.89,0.6-1.47,0.6C382.79,9.09,382.29,8.89,381.89,8.49z M384.99,11.19v15.84h-3.28V11.19H384.99z"/>
			<path id="XMLID_00000060022319629674766120000014790984079845365916_" class="st0" d="M176.96,45.38v19.98h-3.28V51.67
				l-6.1,13.68h-2.27l-6.12-13.68v13.68h-3.28V45.38h3.54l7.02,15.67l6.98-15.67H176.96z"/>
			<path id="XMLID_00000070114213045868611460000011859929528384370057_" class="st0" d="M181.69,53.14
				c0.66-1.23,1.56-2.18,2.7-2.86s2.4-1.02,3.78-1.02c1.25,0,2.33,0.24,3.26,0.73c0.93,0.49,1.67,1.1,2.23,1.82v-2.3h3.31v15.84
				h-3.31V63c-0.56,0.75-1.31,1.37-2.27,1.87c-0.96,0.5-2.05,0.75-3.28,0.75c-1.36,0-2.61-0.35-3.74-1.05
				c-1.13-0.7-2.03-1.68-2.69-2.93c-0.66-1.26-0.99-2.68-0.99-4.27C180.7,55.78,181.03,54.37,181.69,53.14z M192.99,54.58
				c-0.45-0.81-1.04-1.42-1.77-1.84c-0.73-0.42-1.51-0.63-2.36-0.63c-0.84,0-1.63,0.21-2.36,0.62c-0.73,0.41-1.32,1.02-1.77,1.81
				c-0.45,0.79-0.68,1.74-0.68,2.83c0,1.09,0.23,2.05,0.68,2.88c0.45,0.82,1.04,1.45,1.78,1.88c0.74,0.43,1.52,0.65,2.34,0.65
				c0.84,0,1.63-0.21,2.36-0.63c0.73-0.42,1.32-1.04,1.77-1.85c0.45-0.81,0.68-1.77,0.68-2.86
				C193.67,56.33,193.44,55.38,192.99,54.58z"/>
			<path id="XMLID_00000122708953952881839670000000818182598728739246_" class="st0" d="M205.62,52.19v8.77
				c0,0.59,0.14,1.02,0.42,1.28s0.75,0.39,1.42,0.39h2.01v2.73h-2.59c-1.48,0-2.61-0.35-3.39-1.04c-0.79-0.69-1.18-1.81-1.18-3.36
				v-8.77h-1.87v-2.67h1.87v-3.94h3.31v3.94h3.85v2.67H205.62z"/>
			<path id="XMLID_00000101790970547268951570000018398749784799742881_" class="st0" d="M227.42,58.66h-12.1
				c0.09,1.26,0.56,2.28,1.41,3.05c0.84,0.77,1.88,1.15,3.1,1.15c1.76,0,3.01-0.74,3.74-2.21h3.54c-0.48,1.46-1.35,2.65-2.6,3.58
				c-1.26,0.93-2.81,1.39-4.67,1.39c-1.51,0-2.87-0.34-4.07-1.02c-1.2-0.68-2.14-1.64-2.82-2.87c-0.68-1.24-1.02-2.67-1.02-4.3
				c0-1.63,0.33-3.06,0.99-4.3c0.66-1.24,1.59-2.19,2.79-2.86c1.2-0.67,2.57-1.01,4.13-1.01c1.5,0,2.83,0.33,4,0.98
				c1.17,0.65,2.08,1.57,2.73,2.75c0.65,1.18,0.98,2.53,0.98,4.07C227.53,57.64,227.49,58.18,227.42,58.66z M224.11,56.02
				c-0.02-1.21-0.45-2.18-1.29-2.9c-0.84-0.73-1.89-1.09-3.13-1.09c-1.13,0-2.1,0.36-2.9,1.08s-1.28,1.69-1.44,2.92H224.11z"/>
			<path id="XMLID_00000081649165779191877270000016714976768224347544_" class="st0" d="M253.79,50.04
				c0.99,0.52,1.76,1.28,2.33,2.3c0.56,1.02,0.85,2.24,0.85,3.68v9.34h-3.25V56.5c0-1.42-0.35-2.51-1.06-3.26
				c-0.71-0.76-1.68-1.14-2.9-1.14s-2.2,0.38-2.92,1.14c-0.72,0.76-1.08,1.84-1.08,3.26v8.85h-3.25V56.5c0-1.42-0.35-2.51-1.06-3.26
				c-0.71-0.76-1.68-1.14-2.9-1.14c-1.23,0-2.2,0.38-2.92,1.14c-0.72,0.76-1.08,1.84-1.08,3.26v8.85h-3.28V49.52h3.28v1.81
				c0.54-0.65,1.22-1.16,2.04-1.52c0.82-0.36,1.71-0.55,2.65-0.55c1.26,0,2.4,0.27,3.39,0.81c1,0.54,1.76,1.31,2.3,2.33
				c0.48-0.96,1.23-1.72,2.24-2.29c1.02-0.57,2.11-0.85,3.28-0.85C251.69,49.26,252.81,49.52,253.79,50.04z"/>
			<path id="XMLID_00000150102897060494697330000016579964071082074510_" class="st0" d="M261.56,53.14
				c0.66-1.23,1.56-2.18,2.7-2.86c1.14-0.68,2.4-1.02,3.78-1.02c1.25,0,2.33,0.24,3.26,0.73c0.93,0.49,1.67,1.1,2.23,1.82v-2.3h3.31
				v15.84h-3.31V63c-0.56,0.75-1.31,1.37-2.27,1.87c-0.96,0.5-2.05,0.75-3.28,0.75c-1.36,0-2.61-0.35-3.74-1.05
				c-1.13-0.7-2.03-1.68-2.69-2.93c-0.66-1.26-0.99-2.68-0.99-4.27C260.56,55.78,260.89,54.37,261.56,53.14z M272.85,54.58
				c-0.45-0.81-1.04-1.42-1.77-1.84s-1.51-0.63-2.36-0.63s-1.63,0.21-2.36,0.62c-0.73,0.41-1.32,1.02-1.77,1.81
				c-0.45,0.79-0.68,1.74-0.68,2.83c0,1.09,0.23,2.05,0.68,2.88c0.45,0.82,1.04,1.45,1.78,1.88c0.74,0.43,1.52,0.65,2.34,0.65
				c0.84,0,1.63-0.21,2.36-0.63c0.73-0.42,1.32-1.04,1.77-1.85c0.45-0.81,0.68-1.77,0.68-2.86
				C273.53,56.33,273.3,55.38,272.85,54.58z"/>
			<path id="XMLID_00000137132589127783889620000006812778862678049937_" class="st0" d="M285.49,52.19v8.77
				c0,0.59,0.14,1.02,0.42,1.28s0.75,0.39,1.42,0.39h2.01v2.73h-2.59c-1.48,0-2.61-0.35-3.39-1.04c-0.79-0.69-1.18-1.81-1.18-3.36
				v-8.77h-1.87v-2.67h1.87v-3.94h3.31v3.94h3.85v2.67H285.49z"/>
			<path id="XMLID_00000173143108211766397620000012281967588612039852_" class="st0" d="M293.05,46.82c-0.4-0.4-0.6-0.9-0.6-1.5
				c0-0.59,0.2-1.09,0.6-1.49c0.4-0.4,0.9-0.6,1.5-0.6c0.57,0,1.06,0.2,1.47,0.6c0.4,0.4,0.6,0.9,0.6,1.49c0,0.59-0.2,1.09-0.6,1.5
				c-0.4,0.4-0.89,0.6-1.47,0.6C293.95,47.42,293.45,47.22,293.05,46.82z M296.15,49.52v15.84h-3.28V49.52H296.15z"/>
			<path id="XMLID_00000087378932790081652890000006386999490149019561_" class="st0" d="M300.89,53.13
				c0.66-1.24,1.58-2.19,2.75-2.86c1.17-0.67,2.51-1.01,4.03-1.01c1.92,0,3.5,0.46,4.76,1.37c1.25,0.91,2.1,2.21,2.54,3.9h-3.54
				c-0.29-0.79-0.75-1.4-1.38-1.84c-0.63-0.44-1.43-0.66-2.39-0.66c-1.34,0-2.41,0.47-3.21,1.42c-0.8,0.95-1.19,2.28-1.19,3.98
				c0,1.71,0.4,3.04,1.19,4c0.79,0.96,1.86,1.44,3.21,1.44c1.9,0,3.15-0.83,3.77-2.5h3.54c-0.46,1.61-1.32,2.89-2.59,3.84
				c-1.26,0.95-2.84,1.42-4.72,1.42c-1.51,0-2.86-0.34-4.03-1.02c-1.17-0.68-2.08-1.64-2.75-2.87c-0.66-1.24-0.99-2.67-0.99-4.3
				C299.89,55.8,300.22,54.36,300.89,53.13z"/>
			<path id="XMLID_00000121974809338686046100000004907894739649749927_" class="st0" d="M318.65,53.14
				c0.66-1.23,1.56-2.18,2.7-2.86s2.4-1.02,3.78-1.02c1.25,0,2.33,0.24,3.26,0.73c0.93,0.49,1.67,1.1,2.23,1.82v-2.3h3.31v15.84
				h-3.31V63c-0.56,0.75-1.31,1.37-2.27,1.87c-0.96,0.5-2.05,0.75-3.28,0.75c-1.36,0-2.61-0.35-3.74-1.05
				c-1.13-0.7-2.03-1.68-2.69-2.93c-0.66-1.26-0.99-2.68-0.99-4.27C317.66,55.78,317.99,54.37,318.65,53.14z M329.95,54.58
				c-0.45-0.81-1.04-1.42-1.77-1.84c-0.73-0.42-1.51-0.63-2.36-0.63s-1.63,0.21-2.36,0.62c-0.73,0.41-1.32,1.02-1.77,1.81
				c-0.45,0.79-0.68,1.74-0.68,2.83c0,1.09,0.23,2.05,0.68,2.88c0.45,0.82,1.04,1.45,1.78,1.88c0.74,0.43,1.52,0.65,2.34,0.65
				c0.84,0,1.63-0.21,2.36-0.63c0.73-0.42,1.32-1.04,1.77-1.85c0.45-0.81,0.68-1.77,0.68-2.86
				C330.63,56.33,330.4,55.38,329.95,54.58z"/>
		</g>
	</g>
	<g id="XMLID_320_">
		<path id="XMLID_323_" class="st0" d="M157.99,84.32v12.65c0,1.99,0.47,3.47,1.42,4.43c0.95,0.96,2.25,1.44,3.9,1.44
			c1.65,0,2.94-0.47,3.87-1.42s1.39-2.43,1.39-4.44V84.32h2.01v12.62c0,2.55-0.68,4.47-2.03,5.75c-1.35,1.28-3.11,1.93-5.28,1.93
			s-3.92-0.64-5.28-1.93c-1.35-1.28-2.03-3.2-2.03-5.75V84.32H157.99z"/>
		<path id="XMLID_346_" class="st0" d="M186.85,90.17c1.19,1.16,1.78,2.84,1.78,5.05v9.2h-1.98v-8.97c0-1.71-0.43-3.01-1.28-3.91
			c-0.85-0.9-2.02-1.35-3.49-1.35c-1.51,0-2.72,0.48-3.62,1.44c-0.9,0.96-1.35,2.37-1.35,4.23v8.57h-2.01v-15.7h2.01v2.67
			c0.5-0.96,1.22-1.69,2.16-2.2c0.94-0.51,2-0.76,3.19-0.76C184.13,88.43,185.66,89.01,186.85,90.17z"/>
		<path id="XMLID_348_" class="st0" d="M192.89,85.33c-0.29-0.29-0.43-0.64-0.43-1.06c0-0.42,0.14-0.77,0.43-1.05
			c0.29-0.28,0.63-0.42,1.03-0.42c0.4,0,0.75,0.14,1.04,0.42c0.29,0.28,0.43,0.63,0.43,1.05c0,0.42-0.14,0.78-0.43,1.06
			c-0.29,0.29-0.63,0.43-1.04,0.43C193.52,85.76,193.18,85.61,192.89,85.33z M194.93,88.72v15.7h-2.01v-15.7H194.93z"/>
		<path id="XMLID_351_" class="st0" d="M204.91,102.46l5.29-13.74h2.13l-6.3,15.7h-2.27l-6.3-15.7h2.16L204.91,102.46z"/>
		<path id="XMLID_353_" class="st0" d="M229.03,97.34H216c0.06,1.19,0.35,2.2,0.86,3.05c0.52,0.84,1.2,1.48,2.04,1.91
			c0.84,0.43,1.76,0.65,2.76,0.65c1.3,0,2.4-0.32,3.29-0.95s1.48-1.49,1.77-2.56h2.13c-0.38,1.53-1.2,2.78-2.46,3.75
			c-1.26,0.97-2.83,1.45-4.73,1.45c-1.48,0-2.8-0.33-3.97-0.99c-1.17-0.66-2.08-1.6-2.75-2.82c-0.66-1.22-0.99-2.64-0.99-4.27
			c0-1.63,0.33-3.06,0.98-4.28c0.65-1.23,1.56-2.16,2.73-2.82c1.17-0.65,2.5-0.98,4-0.98s2.8,0.33,3.92,0.98
			c1.12,0.65,1.98,1.53,2.59,2.63c0.6,1.1,0.91,2.32,0.91,3.66C229.08,96.45,229.07,96.98,229.03,97.34z M226.34,92.71
			c-0.49-0.82-1.16-1.45-2-1.87c-0.84-0.42-1.76-0.63-2.76-0.63c-1.5,0-2.77,0.48-3.82,1.44c-1.05,0.96-1.64,2.31-1.75,4.05h11.04
			C227.06,94.54,226.83,93.54,226.34,92.71z"/>
		<path id="XMLID_358_" class="st0" d="M236.63,89.24c0.91-0.54,2.03-0.81,3.35-0.81v2.1h-0.55c-1.46,0-2.63,0.39-3.51,1.18
			c-0.88,0.79-1.32,2.1-1.32,3.94v8.77h-2.01v-15.7h2.01v2.79C235.04,90.53,235.72,89.77,236.63,89.24z"/>
		<path id="XMLID_360_" class="st0" d="M243.82,103.39c-1.14-0.83-1.78-1.97-1.91-3.41h2.07c0.09,0.88,0.51,1.6,1.25,2.14
			c0.74,0.55,1.73,0.82,2.98,0.82c1.09,0,1.95-0.26,2.57-0.78c0.62-0.52,0.93-1.16,0.93-1.93c0-0.54-0.17-0.98-0.52-1.32
			c-0.34-0.35-0.78-0.62-1.31-0.82c-0.53-0.2-1.24-0.42-2.14-0.65c-1.17-0.31-2.12-0.61-2.85-0.92c-0.73-0.31-1.35-0.76-1.85-1.37
			c-0.51-0.6-0.76-1.41-0.76-2.43c0-0.77,0.23-1.48,0.69-2.13c0.46-0.65,1.11-1.17,1.95-1.55c0.84-0.38,1.8-0.57,2.87-0.57
			c1.69,0,3.05,0.43,4.08,1.28c1.04,0.85,1.59,2.03,1.67,3.52h-2.01c-0.06-0.92-0.42-1.66-1.08-2.23c-0.66-0.56-1.57-0.85-2.72-0.85
			c-1.02,0-1.84,0.24-2.47,0.72s-0.95,1.07-0.95,1.78c0,0.61,0.19,1.12,0.56,1.51c0.37,0.39,0.84,0.7,1.39,0.92
			c0.56,0.22,1.3,0.47,2.24,0.73c1.13,0.31,2.03,0.6,2.7,0.89c0.67,0.29,1.25,0.71,1.72,1.27c0.48,0.56,0.73,1.29,0.75,2.21
			c0,0.84-0.23,1.6-0.69,2.26c-0.46,0.66-1.1,1.18-1.93,1.57c-0.82,0.38-1.77,0.57-2.85,0.57
			C246.43,104.65,244.96,104.23,243.82,103.39z"/>
		<path id="XMLID_362_" class="st0" d="M257.29,85.33c-0.29-0.29-0.43-0.64-0.43-1.06c0-0.42,0.14-0.77,0.43-1.05
			c0.29-0.28,0.63-0.42,1.03-0.42c0.4,0,0.75,0.14,1.04,0.42c0.29,0.28,0.43,0.63,0.43,1.05c0,0.42-0.14,0.78-0.43,1.06
			c-0.29,0.29-0.63,0.43-1.04,0.43C257.92,85.76,257.57,85.61,257.29,85.33z M259.33,88.72v15.7h-2.01v-15.7H259.33z"/>
		<path id="XMLID_365_" class="st0" d="M266.34,90.41v9.75c0,0.96,0.18,1.62,0.55,1.98c0.36,0.36,1.01,0.55,1.93,0.55h1.84v1.72
			h-2.16c-1.42,0-2.47-0.33-3.16-0.99c-0.69-0.66-1.03-1.75-1.03-3.26v-9.75h-2.19v-1.7h2.19v-3.94h2.04v3.94h4.31v1.7H266.34z"/>
		<path id="XMLID_367_" class="st0" d="M273.83,92.3c0.64-1.22,1.53-2.16,2.67-2.82c1.14-0.66,2.43-0.99,3.87-0.99
			c1.5,0,2.78,0.35,3.87,1.04c1.08,0.69,1.86,1.57,2.34,2.64v-3.45h2.01v15.7h-2.01v-3.48c-0.5,1.07-1.29,1.96-2.37,2.66
			c-1.08,0.7-2.37,1.05-3.87,1.05c-1.42,0-2.7-0.34-3.84-1.01c-1.14-0.67-2.03-1.62-2.67-2.85c-0.64-1.23-0.96-2.65-0.96-4.26
			C272.87,94.93,273.19,93.51,273.83,92.3z M285.81,93.23c-0.52-0.96-1.22-1.7-2.11-2.21c-0.89-0.52-1.87-0.78-2.95-0.78
			c-1.11,0-2.11,0.25-2.99,0.75c-0.88,0.5-1.58,1.22-2.08,2.17c-0.51,0.95-0.76,2.07-0.76,3.38c0,1.28,0.25,2.41,0.76,3.38
			c0.51,0.97,1.2,1.71,2.08,2.21c0.88,0.51,1.88,0.76,2.99,0.76c1.07,0,2.06-0.26,2.95-0.78c0.89-0.52,1.6-1.26,2.11-2.22
			c0.52-0.96,0.78-2.07,0.78-3.34S286.32,94.19,285.81,93.23z M283.88,85.96v1.55l-5.89-3.42v-1.81L283.88,85.96z"/>
		<path id="XMLID_371_" class="st0" d="M300.78,92.3c0.65-1.22,1.55-2.16,2.69-2.82c1.14-0.66,2.43-0.99,3.87-0.99
			c1.38,0,2.63,0.34,3.74,1.01c1.11,0.67,1.93,1.54,2.44,2.62v-8.97h2.01v21.28h-2.01v-3.51c-0.48,1.09-1.26,1.99-2.36,2.69
			c-1.09,0.7-2.38,1.05-3.85,1.05c-1.44,0-2.73-0.34-3.87-1.01c-1.14-0.67-2.03-1.62-2.67-2.85c-0.64-1.23-0.96-2.65-0.96-4.26
			C299.81,94.93,300.13,93.51,300.78,92.3z M312.74,93.23c-0.52-0.96-1.22-1.7-2.11-2.21c-0.89-0.52-1.87-0.78-2.95-0.78
			c-1.11,0-2.11,0.25-2.99,0.75c-0.88,0.5-1.58,1.22-2.08,2.17c-0.51,0.95-0.76,2.07-0.76,3.38c0,1.28,0.25,2.41,0.76,3.38
			c0.51,0.97,1.2,1.71,2.08,2.21c0.88,0.51,1.88,0.76,2.99,0.76c1.07,0,2.06-0.26,2.95-0.78c0.89-0.52,1.6-1.26,2.11-2.22
			c0.52-0.96,0.78-2.07,0.78-3.34S313.26,94.19,312.74,93.23z"/>
		<path id="XMLID_374_" class="st0" d="M319.93,85.33c-0.29-0.29-0.43-0.64-0.43-1.06c0-0.42,0.14-0.77,0.43-1.05
			c0.29-0.28,0.63-0.42,1.03-0.42c0.4,0,0.75,0.14,1.04,0.42c0.29,0.28,0.43,0.63,0.43,1.05c0,0.42-0.14,0.78-0.43,1.06
			c-0.29,0.29-0.63,0.43-1.04,0.43C320.56,85.76,320.22,85.61,319.93,85.33z M321.97,88.72v15.7h-2.01v-15.7H321.97z"/>
		<path id="XMLID_377_" class="st0" d="M345.23,94.27c-1.13,1.05-2.83,1.58-5.09,1.58h-4.05v8.57h-2.01v-20.1h6.07
			c2.24,0,3.93,0.53,5.07,1.58c1.14,1.06,1.71,2.45,1.71,4.2C346.92,91.82,346.36,93.21,345.23,94.27z M344.85,90.1
			c0-1.34-0.37-2.36-1.12-3.05c-0.75-0.69-1.95-1.03-3.59-1.03h-4.05v8.11h4.05C343.28,94.12,344.85,92.78,344.85,90.1z"/>
		<path id="XMLID_380_" class="st0" d="M350.09,85.33c-0.29-0.29-0.43-0.64-0.43-1.06c0-0.42,0.14-0.77,0.43-1.05
			c0.29-0.28,0.63-0.42,1.03-0.42c0.4,0,0.75,0.14,1.04,0.42c0.29,0.28,0.43,0.63,0.43,1.05c0,0.42-0.14,0.78-0.43,1.06
			c-0.29,0.29-0.63,0.43-1.04,0.43C350.72,85.76,350.38,85.61,350.09,85.33z M352.13,88.72v15.7h-2.01v-15.7H352.13z"/>
		<path id="XMLID_383_" class="st0" d="M357.52,103.39c-1.14-0.83-1.78-1.97-1.91-3.41h2.07c0.09,0.88,0.51,1.6,1.25,2.14
			c0.74,0.55,1.73,0.82,2.98,0.82c1.09,0,1.95-0.26,2.57-0.78c0.62-0.52,0.93-1.16,0.93-1.93c0-0.54-0.17-0.98-0.52-1.32
			c-0.34-0.35-0.78-0.62-1.31-0.82c-0.53-0.2-1.24-0.42-2.14-0.65c-1.17-0.31-2.12-0.61-2.85-0.92c-0.73-0.31-1.35-0.76-1.85-1.37
			c-0.51-0.6-0.76-1.41-0.76-2.43c0-0.77,0.23-1.48,0.69-2.13c0.46-0.65,1.11-1.17,1.95-1.55c0.84-0.38,1.8-0.57,2.87-0.57
			c1.69,0,3.05,0.43,4.08,1.28c1.04,0.85,1.59,2.03,1.67,3.52h-2.01c-0.06-0.92-0.42-1.66-1.08-2.23c-0.66-0.56-1.57-0.85-2.72-0.85
			c-1.02,0-1.84,0.24-2.47,0.72s-0.95,1.07-0.95,1.78c0,0.61,0.19,1.12,0.56,1.51c0.37,0.39,0.84,0.7,1.39,0.92
			c0.56,0.22,1.3,0.47,2.24,0.73c1.13,0.31,2.03,0.6,2.7,0.89c0.67,0.29,1.25,0.71,1.72,1.27c0.48,0.56,0.73,1.29,0.75,2.21
			c0,0.84-0.23,1.6-0.69,2.26c-0.46,0.66-1.1,1.18-1.93,1.57c-0.82,0.38-1.77,0.57-2.85,0.57
			C360.13,104.65,358.66,104.23,357.52,103.39z"/>
		<path id="XMLID_385_" class="st0" d="M371.06,92.3c0.64-1.22,1.53-2.16,2.67-2.82c1.14-0.66,2.43-0.99,3.87-0.99
			c1.5,0,2.78,0.35,3.87,1.04c1.08,0.69,1.86,1.57,2.34,2.64v-3.45h2.01v15.7h-2.01v-3.48c-0.5,1.07-1.29,1.96-2.37,2.66
			c-1.08,0.7-2.37,1.05-3.87,1.05c-1.42,0-2.7-0.34-3.84-1.01c-1.14-0.67-2.03-1.62-2.67-2.85c-0.64-1.23-0.96-2.65-0.96-4.26
			C370.1,94.93,370.42,93.51,371.06,92.3z M383.03,93.23c-0.52-0.96-1.22-1.7-2.11-2.21c-0.89-0.52-1.87-0.78-2.95-0.78
			c-1.11,0-2.11,0.25-2.99,0.75c-0.88,0.5-1.58,1.22-2.08,2.17c-0.51,0.95-0.76,2.07-0.76,3.38c0,1.28,0.25,2.41,0.76,3.38
			c0.51,0.97,1.2,1.71,2.08,2.21c0.88,0.51,1.88,0.76,2.99,0.76c1.07,0,2.06-0.26,2.95-0.78c0.89-0.52,1.6-1.26,2.11-2.22
			c0.52-0.96,0.78-2.07,0.78-3.34S383.55,94.19,383.03,93.23z"/>
	</g>
</g>
</svg>
